<svg width="273" height="134" viewBox="0 0 273 134" fill="none" xmlns="http://www.w3.org/2000/svg">
<path d="M28.0266 132.25L28.0293 132.247L64.5334 92.4181L64.5342 92.4173C65.042 91.8645 65.6588 91.423 66.3459 91.1207C67.0329 90.8184 67.7751 90.6619 68.5256 90.661H68.5268H261.426C264.089 90.6581 266.641 89.5989 268.524 87.7159C270.407 85.833 271.466 83.2802 271.469 80.6174V11.0437C271.466 8.38087 270.407 5.82802 268.524 3.94514C266.641 2.06228 264.089 1.00314 261.427 1H11.5108C8.84851 1.00314 6.29611 2.06228 4.41351 3.94514C2.53079 5.82815 1.47174 8.38122 1.46875 11.0443V80.6168C1.47174 83.2798 2.53079 85.8329 4.41351 87.7159C6.29623 89.5989 8.84888 90.6581 11.5114 90.6611H18.5955H18.5966C20.0327 90.6627 21.4094 91.234 22.4247 92.2496C23.4401 93.2651 24.0112 94.642 24.0128 96.0781V96.0792L24.0128 130.684L24.0128 130.688C24.0108 131.154 24.1503 131.608 24.4129 131.992C24.6755 132.376 25.0486 132.671 25.4827 132.838L25.4885 132.84C25.7579 132.945 26.0445 133 26.3338 133C26.6525 133 26.9675 132.933 27.2589 132.804C27.5505 132.674 27.812 132.486 28.0266 132.25Z" fill="white" fill-opacity="0.3" stroke="white" stroke-width="2"/>
</svg>
