<svg width="290" height="144" viewBox="0 0 290 144" fill="none" xmlns="http://www.w3.org/2000/svg">
<path d="M260.572 142.172L260.57 142.169L221.65 99.3683L221.649 99.3674C221.114 98.7807 220.464 98.3116 219.739 97.9903C219.015 97.6689 218.231 97.5024 217.439 97.5014H217.438H11.7733C8.91964 97.4982 6.18213 96.354 4.1618 94.3174L3.46152 95.0121L4.1618 94.3174C2.14134 92.2806 1.00335 89.5174 1 86.6336V11.8678C1.00335 8.98398 2.14134 6.22078 4.1618 4.184C6.18199 2.14749 8.91928 1.00338 11.7727 1H278.227C281.081 1.00337 283.818 2.14749 285.838 4.184C287.859 6.22091 288.997 8.98431 289 11.8684V86.6331C288.997 89.5171 287.859 92.2806 285.838 94.3175C283.818 96.3541 281.08 97.4982 278.227 97.5014H270.674H270.673C269.156 97.5032 267.705 98.1112 266.635 99.1894C265.566 100.267 264.966 101.727 264.964 103.248V103.249V140.437V140.441C264.966 140.958 264.812 141.462 264.524 141.887C264.235 142.313 263.826 142.638 263.352 142.821L263.346 142.824C263.052 142.94 262.739 143 262.423 143C262.075 143 261.731 142.926 261.413 142.784C261.094 142.641 260.808 142.433 260.572 142.172Z" fill="white" fill-opacity="0.3" stroke="white" stroke-width="2"/>
</svg>
