<svg width="239" height="118" viewBox="0 0 239 118" fill="none" xmlns="http://www.w3.org/2000/svg">
<path d="M214.876 116.379L214.873 116.376L182.798 81.3032L182.797 81.3024C182.34 80.8034 181.784 80.4047 181.165 80.1317C180.546 79.8586 179.877 79.7172 179.2 79.7164H179.199H9.70302C7.39639 79.7139 5.18449 78.7943 3.55274 77.1587C1.92104 75.5232 1.00274 73.3053 1 70.9913V9.72511C1.00274 7.41117 1.92104 5.19324 3.55274 3.55773C5.18436 1.9223 7.39602 1.00274 9.70246 1H229.298C231.604 1.00274 233.816 1.9223 235.447 3.55774C237.079 5.19338 237.997 7.41153 238 9.72568V70.9908C237.997 73.3049 237.079 75.5231 235.447 77.1587C233.816 78.7943 231.604 79.7139 229.297 79.7165H223.072H223.071C221.777 79.718 220.536 80.2341 219.621 81.151C218.707 82.0679 218.193 83.3104 218.191 84.6059V84.607L218.191 115.08L218.191 115.084C218.193 115.47 218.077 115.847 217.86 116.165C217.643 116.483 217.335 116.727 216.977 116.865L216.971 116.868C216.748 116.955 216.512 117 216.273 117C216.01 117 215.75 116.944 215.51 116.838C215.269 116.731 215.053 116.575 214.876 116.379Z" fill="white" fill-opacity="0.3" stroke="white" stroke-width="2"/>
</svg>
