<svg width="225" height="110" viewBox="0 0 225 110" fill="none" xmlns="http://www.w3.org/2000/svg">
<path d="M23.0339 108.442L23.0366 108.439L53.0989 75.7434L53.0997 75.7426C53.5345 75.2707 54.0626 74.894 54.6505 74.6362C55.2384 74.3783 55.8734 74.2449 56.5154 74.2441H56.5166H215.375C217.522 74.2417 219.579 73.3904 221.096 71.8778C222.613 70.3655 223.466 68.3157 223.469 66.1783V9.06583C223.466 6.92841 222.613 4.87864 221.096 3.36632C219.579 1.85388 217.522 1.00254 215.375 1H9.56233C7.41559 1.00254 5.35812 1.85388 3.84105 3.36632C2.32396 4.87878 1.47115 6.92878 1.46875 9.06639V66.1778C1.47115 68.3154 2.32396 70.3654 3.84105 71.8779C5.35825 73.3904 7.41592 74.2418 9.56285 74.2442H15.3967H15.3978C16.6261 74.2456 17.8044 74.7326 18.6738 75.5995C19.5434 76.4665 20.0331 77.6425 20.0344 78.8699V78.871L20.0344 107.278L20.0344 107.282C20.0329 107.627 20.1367 107.964 20.3323 108.249C20.5279 108.535 20.8063 108.754 21.1307 108.878L21.1366 108.881C21.3382 108.959 21.5528 109 21.7695 109C22.0077 109 22.2432 108.95 22.4608 108.854C22.6788 108.757 22.8739 108.617 23.0339 108.442Z" fill="white" fill-opacity="0.3" stroke="white" stroke-width="2"/>
</svg>
