<svg width="13" height="12" viewBox="0 0 13 12" fill="none" xmlns="http://www.w3.org/2000/svg">
<path d="M3.43531 10.8051C3.41064 10.8207 3.39248 10.8231 3.37896 10.8224C3.36268 10.8216 3.34309 10.8157 3.32436 10.8026C3.30563 10.7895 3.29333 10.7731 3.28704 10.7581C3.28181 10.7456 3.27776 10.7277 3.28403 10.6992L3.95648 7.63914C4.04084 7.25524 3.91395 6.8555 3.62362 6.59054L1.34178 4.50813C1.32102 4.48918 1.31383 4.47259 1.3107 4.45924C1.30701 4.44346 1.30734 4.42342 1.3144 4.4024C1.32147 4.38137 1.33331 4.36521 1.34579 4.35486C1.35634 4.34611 1.3721 4.33723 1.40009 4.33468L4.36004 4.06421C4.7713 4.02664 5.12686 3.76187 5.28073 3.37864L6.4072 0.573054C6.41834 0.545299 6.43196 0.53288 6.44327 0.525648C6.45703 0.51685 6.47672 0.510315 6.5 0.510315C6.52328 0.510315 6.54297 0.51685 6.55673 0.525648C6.56804 0.532881 6.58166 0.5453 6.5928 0.573055L7.71927 3.37864C7.87314 3.76187 8.2287 4.02664 8.63996 4.06421L11.5999 4.33468C11.6279 4.33723 11.6437 4.34611 11.6542 4.35486C11.6667 4.36521 11.6785 4.38137 11.6856 4.4024C11.6927 4.42342 11.693 4.44346 11.6893 4.45924C11.6862 4.47259 11.679 4.48918 11.6582 4.50813L9.37638 6.59054C9.08605 6.8555 8.95915 7.25524 9.04352 7.63914L9.71596 10.6992C9.72224 10.7277 9.71819 10.7456 9.71296 10.7581C9.70667 10.7731 9.69437 10.7895 9.67564 10.8026C9.65691 10.8157 9.63731 10.8216 9.62104 10.8224C9.60751 10.823 9.58936 10.8207 9.56469 10.8051L7.08965 9.23345L6.82163 9.65555L7.08965 9.23345C6.72976 9.00493 6.27024 9.00493 5.91035 9.23345L3.43531 10.8051Z" fill="#FFA300" stroke="#EC7C0A"/>
</svg>
