<svg width="1440" height="409" viewBox="0 0 1440 409" fill="none" xmlns="http://www.w3.org/2000/svg">
<path opacity="0.1" d="M0 48.5703C0 48.5703 25.2494 124.78 61.5 133.201C136.367 150.593 140.914 19.6926 217.5 13.2009C303.879 5.87914 320.605 130.092 407.25 127.32C481.704 124.938 497.72 43.7559 570.75 29.0701C660.326 11.057 699.779 107.433 790.5 96.5701C840.534 90.5792 876.609 40.8077 927 41.0701C985.417 41.3743 1030.14 102.635 1088.25 108.57C1178.18 117.755 1232.94 -38.0418 1324.5 20.8201C1377 54.57 1440 92.0701 1440 92.0701V409.32H0V48.5703Z" fill="url(#paint0_linear_216_3248)"/>
<path opacity="0.2" d="M0 64.3198C0 64.3198 21.4994 110.649 57.75 119.07C132.617 136.462 99 55.3199 130.5 14.0701C183.113 -54.8274 324.355 151.842 411 149.07C485.454 146.688 511.22 35.5056 584.25 20.8198C673.826 2.80679 711.779 125.433 802.5 114.57C852.534 108.579 854.859 60.3077 905.25 60.5701C963.667 60.8743 1030.14 122.135 1088.25 128.07C1178.18 137.255 1194 53.0701 1242.75 44.0701C1301.68 33.1907 1440 100.32 1440 100.32V409.32H0V64.3198Z" fill="url(#paint1_linear_216_3248)"/>
<path d="M0 116.82C0 116.82 41.7494 163.149 78 171.57C152.867 188.962 157.414 58.0616 234 51.5699C320.379 44.2481 334.105 174.342 420.75 171.57C495.204 169.188 511.22 88.0057 584.25 73.3199C673.826 55.3068 721.529 136.683 812.25 125.82C862.284 119.829 884.859 86.5575 935.25 86.8199C993.667 87.1241 1016.63 134.885 1074.75 140.82C1164.68 150.004 1204.32 61.8185 1294.5 68.0699C1354.28 72.214 1440 116.82 1440 116.82V409.32H0V116.82Z" fill="url(#paint2_linear_216_3248)" fill-opacity="0.83"/>
<g opacity="0.15" filter="url(#filter0_f_216_3248)">
<path d="M1056 334.5C1056 375.645 905.344 409 719.5 409C533.656 409 383 375.645 383 334.5C383 293.355 533.656 260 719.5 260C905.344 260 1056 293.355 1056 334.5Z" fill="#EB0000"/>
</g>
<path d="M0 65.8196C0 65.8196 28.4047 106.872 60.75 138.911C96.75 174.57 146.868 46.6295 208.5 41.4104C296.609 33.9492 337.055 170.819 425.25 164.444C503.762 158.769 514.934 65.3503 592.5 51.9441C679.31 36.9402 721.048 135.06 807.75 119.444C863.707 109.365 880.025 55.8295 936.75 51.9441C1002.17 47.4629 1025.09 137.69 1090.5 142.32C1168.68 147.854 1205.63 31.5647 1284 32.8187C1349.94 33.8738 1440 119.444 1440 119.444" stroke="#B3C7E2" stroke-width="1.5" stroke-linecap="round" stroke-dasharray="0.75 6"/>
<path d="M0 21.9441C0 21.9441 52.9317 125.152 97.5 134.444C158.05 147.069 165.618 27.1632 227.25 21.9441C315.359 14.483 322.805 153.195 411 146.82C489.512 141.144 505.934 35.3504 583.5 21.9441C670.31 6.9403 717.298 116.31 804 100.694C859.957 90.6153 865.025 25.8295 921.75 21.9441C987.171 17.463 1025.09 99.0893 1090.5 103.719C1168.68 109.253 1231.05 -22.5457 1304.25 5.46804C1362 27.5697 1440 104.444 1440 104.444" stroke="#B3C7E2" stroke-width="1.5" stroke-linecap="round" stroke-dasharray="0.75 6"/>
<defs>
<filter id="filter0_f_216_3248" x="195.5" y="72.5" width="1048" height="524" filterUnits="userSpaceOnUse" color-interpolation-filters="sRGB">
<feFlood flood-opacity="0" result="BackgroundImageFix"/>
<feBlend mode="normal" in="SourceGraphic" in2="BackgroundImageFix" result="shape"/>
<feGaussianBlur stdDeviation="93.75" result="effect1_foregroundBlur_216_3248"/>
</filter>
<linearGradient id="paint0_linear_216_3248" x1="8.48388e-05" y1="21.272" x2="868.503" y2="960.734" gradientUnits="userSpaceOnUse">
<stop stop-color="#A97DFB"/>
<stop offset="1" stop-color="#78B2F3"/>
</linearGradient>
<linearGradient id="paint1_linear_216_3248" x1="-4.93819e-05" y1="-1.22823" x2="864.002" y2="973.714" gradientUnits="userSpaceOnUse">
<stop stop-color="#A87EFB"/>
<stop offset="1" stop-color="#7AB0F4"/>
</linearGradient>
<linearGradient id="paint2_linear_216_3248" x1="-0.000134935" y1="96.8516" x2="752.322" y2="981.231" gradientUnits="userSpaceOnUse">
<stop stop-color="#0E7773"/>
<stop offset="0.494792" stop-color="#8793FC"/>
<stop offset="1" stop-color="#9976FF"/>
</linearGradient>
</defs>
</svg>
