<svg width="1440" height="261" viewBox="0 0 1440 261" fill="none" xmlns="http://www.w3.org/2000/svg">
<path d="M0 213.219C0 213.219 41.7494 179.447 78 173.309C152.867 160.63 157.414 256.051 234 260.783C320.379 266.12 334.105 171.288 420.75 173.309C495.204 175.045 511.22 234.223 584.25 244.928C673.826 258.059 721.529 198.74 812.25 206.658C862.284 211.025 884.859 235.279 935.25 235.087C993.667 234.866 1016.63 200.05 1074.75 195.724C1164.68 189.029 1204.32 253.312 1294.5 248.755C1354.28 245.734 1440 213.219 1440 213.219V0H0V213.219Z" fill="url(#paint0_linear_216_3128)" fill-opacity="0.83"/>
<defs>
<linearGradient id="paint0_linear_216_3128" x1="-0.000134935" y1="227.775" x2="497.68" y2="-574.801" gradientUnits="userSpaceOnUse">
<stop stop-color="#0E7773"/>
<stop offset="0.494792" stop-color="#8793FC"/>
<stop offset="1" stop-color="#9976FF"/>
</linearGradient>
</defs>
</svg>
