<svg width="870" height="826" viewBox="0 0 870 826" fill="none" xmlns="http://www.w3.org/2000/svg">
<path opacity="0.89" d="M1168.48 -404.861C1168.48 -404.861 1099.33 -460.244 1054.27 -418.8C984.169 -354.325 1080.46 -255.996 1037.9 -174.272C986.546 -75.6497 1001.62 -172.503 959.418 -93.3932C914.122 -8.4747 932.63 -8.6901 824.646 2.25448C611.307 23.8772 657.929 194.788 564.109 277.691C502.519 332.115 434.013 328.928 429.312 400.002C424.51 472.607 414.076 510.909 366.684 558.94C282.259 644.503 194.278 686.031 139.087 741.186C64.2131 816.012 221.966 832.72 67.1438 987.442C-72.6166 1127.11 50.5978 1228.92 50.5978 1228.92L357.34 1535.86C357.34 1535.86 528.058 1477.76 609.163 1395.06C718.935 1283.12 614.011 1118.12 746.669 1042.38C810.235 1006.09 851.082 1039.11 916.256 1008.52C1069.47 936.609 1025.73 744.446 1165.63 638.763C1248.65 576.046 1318.14 594.709 1397.92 527.161C1463.98 471.231 1362.3 285.082 1488.87 322.186C1546.53 339.087 1489.4 179.075 1552.27 151.199C1612.54 124.473 1706.63 133.63 1706.63 133.63L1168.48 -404.861Z" fill="url(#paint0_linear_208_2885)" fill-opacity="0.8"/>
<defs>
<linearGradient id="paint0_linear_208_2885" x1="1259" y1="1048" x2="465.326" y2="116.936" gradientUnits="userSpaceOnUse">
<stop stop-color="#A05DF6"/>
<stop offset="0.208333" stop-color="#986AF5"/>
<stop offset="1" stop-color="#2AC5DD"/>
</linearGradient>
</defs>
</svg>
