<svg width="770" height="826" viewBox="0 0 770 826" fill="none" xmlns="http://www.w3.org/2000/svg">
<path opacity="0.89" d="M371.281 -569.567C371.281 -569.567 320.141 -610.525 286.817 -579.875C234.977 -532.194 306.188 -459.477 274.715 -399.039C236.735 -326.105 247.88 -397.731 216.673 -339.227C183.174 -276.427 196.862 -276.587 117.004 -268.493C-40.7666 -252.502 -6.28778 -126.108 -75.6708 -64.7986C-121.218 -24.5509 -171.881 -26.9078 -175.357 25.654C-178.909 79.3478 -186.625 107.673 -221.673 143.193C-284.108 206.47 -349.173 237.181 -389.988 277.97C-445.359 333.306 -328.697 345.662 -443.192 460.084C-546.549 563.374 -455.428 638.665 -455.428 638.665L-228.583 865.657C-228.583 865.657 -102.331 822.689 -42.352 761.529C38.828 678.75 -38.7669 556.723 59.3377 500.715C106.347 473.877 136.555 498.292 184.753 475.67C298.057 422.492 265.71 280.381 369.17 202.225C430.569 155.844 481.961 169.646 540.961 119.692C589.812 78.3297 514.614 -59.333 608.218 -31.8933C650.856 -19.3943 608.609 -137.729 655.104 -158.344C699.68 -178.108 769.255 -171.336 769.255 -171.336L371.281 -569.567Z" fill="url(#paint0_linear_208_2862)" fill-opacity="0.8"/>
<defs>
<linearGradient id="paint0_linear_208_2862" x1="-71.4961" y1="-130.5" x2="408.471" y2="387.9" gradientUnits="userSpaceOnUse">
<stop stop-color="#2AF598"/>
<stop offset="1" stop-color="#08AEEA"/>
</linearGradient>
</defs>
</svg>
