<svg width="661" height="114" viewBox="0 0 661 114" fill="none" xmlns="http://www.w3.org/2000/svg">
<rect width="661" height="114" fill="#919191"/>
<g clip-path="url(#clip0_271_7344)">
<rect width="1440" height="1070" transform="translate(-390 -301)" fill="white"/>
<rect x="-25.4844" y="33.5153" width="1034.3" height="65.9974" rx="1.54681" fill="white" stroke="#E8E8E8" stroke-width="1.03121"/>
<rect x="-26" y="-32.9997" width="1035.33" height="67.0286" rx="2.06242" fill="#EFEFEF"/>
<rect x="-26" y="99" width="1035.33" height="67.0286" rx="2.06242" fill="#EFEFEF"/>
<rect x="-1" y="-12" width="25" height="25" rx="3" stroke="#B5B5B5" stroke-width="2"/>
<rect x="-1" y="54" width="25" height="25" rx="3" stroke="#B5B5B5" stroke-width="2"/>
<path d="M105.52 3.89H109.18V5H104.155V-5.455H105.52V3.89ZM114.615 5.135C113.845 5.135 113.145 4.96 112.515 4.61C111.895 4.26 111.405 3.765 111.045 3.125C110.695 2.475 110.52 1.725 110.52 0.875C110.52 0.0349997 110.7 -0.705 111.06 -1.345C111.43 -1.995 111.93 -2.49 112.56 -2.83C113.19 -3.18 113.895 -3.355 114.675 -3.355C115.455 -3.355 116.16 -3.18 116.79 -2.83C117.42 -2.49 117.915 -2 118.275 -1.36C118.645 -0.72 118.83 0.0249998 118.83 0.875C118.83 1.725 118.64 2.475 118.26 3.125C117.89 3.765 117.385 4.26 116.745 4.61C116.105 4.96 115.395 5.135 114.615 5.135ZM114.615 3.935C115.105 3.935 115.565 3.82 115.995 3.59C116.425 3.36 116.77 3.015 117.03 2.555C117.3 2.095 117.435 1.535 117.435 0.875C117.435 0.215 117.305 -0.345 117.045 -0.805C116.785 -1.265 116.445 -1.605 116.025 -1.825C115.605 -2.055 115.15 -2.17 114.66 -2.17C114.16 -2.17 113.7 -2.055 113.28 -1.825C112.87 -1.605 112.54 -1.265 112.29 -0.805C112.04 -0.345 111.915 0.215 111.915 0.875C111.915 1.545 112.035 2.11 112.275 2.57C112.525 3.03 112.855 3.375 113.265 3.605C113.675 3.825 114.125 3.935 114.615 3.935ZM122.389 -1.885C122.629 -2.355 122.969 -2.72 123.409 -2.98C123.859 -3.24 124.404 -3.37 125.044 -3.37V-1.96H124.684C123.154 -1.96 122.389 -1.13 122.389 0.53V5H121.024V-3.22H122.389V-1.885ZM134.52 0.575C134.52 0.835 134.505 1.11 134.475 1.4H127.905C127.955 2.21 128.23 2.845 128.73 3.305C129.24 3.755 129.855 3.98 130.575 3.98C131.165 3.98 131.655 3.845 132.045 3.575C132.445 3.295 132.725 2.925 132.885 2.465H134.355C134.135 3.255 133.695 3.9 133.035 4.4C132.375 4.89 131.555 5.135 130.575 5.135C129.795 5.135 129.095 4.96 128.475 4.61C127.865 4.26 127.385 3.765 127.035 3.125C126.685 2.475 126.51 1.725 126.51 0.875C126.51 0.0249998 126.68 -0.72 127.02 -1.36C127.36 -2 127.835 -2.49 128.445 -2.83C129.065 -3.18 129.775 -3.355 130.575 -3.355C131.355 -3.355 132.045 -3.185 132.645 -2.845C133.245 -2.505 133.705 -2.035 134.025 -1.435C134.355 -0.845 134.52 -0.175 134.52 0.575ZM133.11 0.29C133.11 -0.23 132.995 -0.675 132.765 -1.045C132.535 -1.425 132.22 -1.71 131.82 -1.9C131.43 -2.1 130.995 -2.2 130.515 -2.2C129.825 -2.2 129.235 -1.98 128.745 -1.54C128.265 -1.1 127.99 -0.49 127.92 0.29H133.11ZM146.607 -3.37C147.247 -3.37 147.817 -3.235 148.317 -2.965C148.817 -2.705 149.212 -2.31 149.502 -1.78C149.792 -1.25 149.937 -0.605 149.937 0.155V5H148.587V0.35C148.587 -0.47 148.382 -1.095 147.972 -1.525C147.572 -1.965 147.027 -2.185 146.337 -2.185C145.627 -2.185 145.062 -1.955 144.642 -1.495C144.222 -1.045 144.012 -0.39 144.012 0.47V5H142.662V0.35C142.662 -0.47 142.457 -1.095 142.047 -1.525C141.647 -1.965 141.102 -2.185 140.412 -2.185C139.702 -2.185 139.137 -1.955 138.717 -1.495C138.297 -1.045 138.087 -0.39 138.087 0.47V5H136.722V-3.22H138.087V-2.035C138.357 -2.465 138.717 -2.795 139.167 -3.025C139.627 -3.255 140.132 -3.37 140.682 -3.37C141.372 -3.37 141.982 -3.215 142.512 -2.905C143.042 -2.595 143.437 -2.14 143.697 -1.54C143.927 -2.12 144.307 -2.57 144.837 -2.89C145.367 -3.21 145.957 -3.37 146.607 -3.37ZM157.68 -4.555C157.42 -4.555 157.2 -4.645 157.02 -4.825C156.84 -5.005 156.75 -5.225 156.75 -5.485C156.75 -5.745 156.84 -5.965 157.02 -6.145C157.2 -6.325 157.42 -6.415 157.68 -6.415C157.93 -6.415 158.14 -6.325 158.31 -6.145C158.49 -5.965 158.58 -5.745 158.58 -5.485C158.58 -5.225 158.49 -5.005 158.31 -4.825C158.14 -4.645 157.93 -4.555 157.68 -4.555ZM158.34 -3.22V5H156.975V-3.22H158.34ZM162.431 -1.705C162.701 -2.175 163.101 -2.565 163.631 -2.875C164.171 -3.195 164.796 -3.355 165.506 -3.355C166.236 -3.355 166.896 -3.18 167.486 -2.83C168.086 -2.48 168.556 -1.985 168.896 -1.345C169.236 -0.715 169.406 0.0199997 169.406 0.86C169.406 1.69 169.236 2.43 168.896 3.08C168.556 3.73 168.086 4.235 167.486 4.595C166.896 4.955 166.236 5.135 165.506 5.135C164.806 5.135 164.186 4.98 163.646 4.67C163.116 4.35 162.711 3.955 162.431 3.485V8.9H161.066V-3.22H162.431V-1.705ZM168.011 0.86C168.011 0.24 167.886 -0.3 167.636 -0.76C167.386 -1.22 167.046 -1.57 166.616 -1.81C166.196 -2.05 165.731 -2.17 165.221 -2.17C164.721 -2.17 164.256 -2.045 163.826 -1.795C163.406 -1.555 163.066 -1.2 162.806 -0.73C162.556 -0.27 162.431 0.265 162.431 0.875C162.431 1.495 162.556 2.04 162.806 2.51C163.066 2.97 163.406 3.325 163.826 3.575C164.256 3.815 164.721 3.935 165.221 3.935C165.731 3.935 166.196 3.815 166.616 3.575C167.046 3.325 167.386 2.97 167.636 2.51C167.886 2.04 168.011 1.49 168.011 0.86ZM174.513 5.135C173.883 5.135 173.318 5.03 172.818 4.82C172.318 4.6 171.923 4.3 171.633 3.92C171.343 3.53 171.183 3.085 171.153 2.585H172.563C172.603 2.995 172.793 3.33 173.133 3.59C173.483 3.85 173.938 3.98 174.498 3.98C175.018 3.98 175.428 3.865 175.728 3.635C176.028 3.405 176.178 3.115 176.178 2.765C176.178 2.405 176.018 2.14 175.698 1.97C175.378 1.79 174.883 1.615 174.213 1.445C173.603 1.285 173.103 1.125 172.713 0.965C172.333 0.795 172.003 0.55 171.723 0.23C171.453 -0.1 171.318 -0.53 171.318 -1.06C171.318 -1.48 171.443 -1.865 171.693 -2.215C171.943 -2.565 172.298 -2.84 172.758 -3.04C173.218 -3.25 173.743 -3.355 174.333 -3.355C175.243 -3.355 175.978 -3.125 176.538 -2.665C177.098 -2.205 177.398 -1.575 177.438 -0.775H176.073C176.043 -1.205 175.868 -1.55 175.548 -1.81C175.238 -2.07 174.818 -2.2 174.288 -2.2C173.798 -2.2 173.408 -2.095 173.118 -1.885C172.828 -1.675 172.683 -1.4 172.683 -1.06C172.683 -0.79 172.768 -0.565 172.938 -0.385C173.118 -0.215 173.338 -0.0750002 173.598 0.0349995C173.868 0.135 174.238 0.25 174.708 0.38C175.298 0.54 175.778 0.7 176.148 0.86C176.518 1.01 176.833 1.24 177.093 1.55C177.363 1.86 177.503 2.265 177.513 2.765C177.513 3.215 177.388 3.62 177.138 3.98C176.888 4.34 176.533 4.625 176.073 4.835C175.623 5.035 175.103 5.135 174.513 5.135ZM187.13 -3.22V5H185.765V3.785C185.505 4.205 185.14 4.535 184.67 4.775C184.21 5.005 183.7 5.12 183.14 5.12C182.5 5.12 181.925 4.99 181.415 4.73C180.905 4.46 180.5 4.06 180.2 3.53C179.91 3 179.765 2.355 179.765 1.595V-3.22H181.115V1.415C181.115 2.225 181.32 2.85 181.73 3.29C182.14 3.72 182.7 3.935 183.41 3.935C184.14 3.935 184.715 3.71 185.135 3.26C185.555 2.81 185.765 2.155 185.765 1.295V-3.22H187.13ZM199.72 -3.37C200.36 -3.37 200.93 -3.235 201.43 -2.965C201.93 -2.705 202.325 -2.31 202.615 -1.78C202.905 -1.25 203.05 -0.605 203.05 0.155V5H201.7V0.35C201.7 -0.47 201.495 -1.095 201.085 -1.525C200.685 -1.965 200.14 -2.185 199.45 -2.185C198.74 -2.185 198.175 -1.955 197.755 -1.495C197.335 -1.045 197.125 -0.39 197.125 0.47V5H195.775V0.35C195.775 -0.47 195.57 -1.095 195.16 -1.525C194.76 -1.965 194.215 -2.185 193.525 -2.185C192.815 -2.185 192.25 -1.955 191.83 -1.495C191.41 -1.045 191.2 -0.39 191.2 0.47V5H189.835V-3.22H191.2V-2.035C191.47 -2.465 191.83 -2.795 192.28 -3.025C192.74 -3.255 193.245 -3.37 193.795 -3.37C194.485 -3.37 195.095 -3.215 195.625 -2.905C196.155 -2.595 196.55 -2.14 196.81 -1.54C197.04 -2.12 197.42 -2.57 197.95 -2.89C198.48 -3.21 199.07 -3.37 199.72 -3.37ZM209.578 0.86C209.578 0.0199997 209.748 -0.715 210.088 -1.345C210.428 -1.985 210.893 -2.48 211.483 -2.83C212.083 -3.18 212.753 -3.355 213.493 -3.355C214.133 -3.355 214.728 -3.205 215.278 -2.905C215.828 -2.615 216.248 -2.23 216.538 -1.75V-6.1H217.918V5H216.538V3.455C216.268 3.945 215.868 4.35 215.338 4.67C214.808 4.98 214.188 5.135 213.478 5.135C212.748 5.135 212.083 4.955 211.483 4.595C210.893 4.235 210.428 3.73 210.088 3.08C209.748 2.43 209.578 1.69 209.578 0.86ZM216.538 0.875C216.538 0.255 216.413 -0.285 216.163 -0.745C215.913 -1.205 215.573 -1.555 215.143 -1.795C214.723 -2.045 214.258 -2.17 213.748 -2.17C213.238 -2.17 212.773 -2.05 212.353 -1.81C211.933 -1.57 211.598 -1.22 211.348 -0.76C211.098 -0.3 210.973 0.24 210.973 0.86C210.973 1.49 211.098 2.04 211.348 2.51C211.598 2.97 211.933 3.325 212.353 3.575C212.773 3.815 213.238 3.935 213.748 3.935C214.258 3.935 214.723 3.815 215.143 3.575C215.573 3.325 215.913 2.97 216.163 2.51C216.413 2.04 216.538 1.495 216.538 0.875ZM224.21 5.135C223.44 5.135 222.74 4.96 222.11 4.61C221.49 4.26 221 3.765 220.64 3.125C220.29 2.475 220.115 1.725 220.115 0.875C220.115 0.0349997 220.295 -0.705 220.655 -1.345C221.025 -1.995 221.525 -2.49 222.155 -2.83C222.785 -3.18 223.49 -3.355 224.27 -3.355C225.05 -3.355 225.755 -3.18 226.385 -2.83C227.015 -2.49 227.51 -2 227.87 -1.36C228.24 -0.72 228.425 0.0249998 228.425 0.875C228.425 1.725 228.235 2.475 227.855 3.125C227.485 3.765 226.98 4.26 226.34 4.61C225.7 4.96 224.99 5.135 224.21 5.135ZM224.21 3.935C224.7 3.935 225.16 3.82 225.59 3.59C226.02 3.36 226.365 3.015 226.625 2.555C226.895 2.095 227.03 1.535 227.03 0.875C227.03 0.215 226.9 -0.345 226.64 -0.805C226.38 -1.265 226.04 -1.605 225.62 -1.825C225.2 -2.055 224.745 -2.17 224.255 -2.17C223.755 -2.17 223.295 -2.055 222.875 -1.825C222.465 -1.605 222.135 -1.265 221.885 -0.805C221.635 -0.345 221.51 0.215 221.51 0.875C221.51 1.545 221.63 2.11 221.87 2.57C222.12 3.03 222.45 3.375 222.86 3.605C223.27 3.825 223.72 3.935 224.21 3.935ZM231.984 -6.1V5H230.619V-6.1H231.984ZM238.296 5.135C237.526 5.135 236.826 4.96 236.196 4.61C235.576 4.26 235.086 3.765 234.726 3.125C234.376 2.475 234.201 1.725 234.201 0.875C234.201 0.0349997 234.381 -0.705 234.741 -1.345C235.111 -1.995 235.611 -2.49 236.241 -2.83C236.871 -3.18 237.576 -3.355 238.356 -3.355C239.136 -3.355 239.841 -3.18 240.471 -2.83C241.101 -2.49 241.596 -2 241.956 -1.36C242.326 -0.72 242.511 0.0249998 242.511 0.875C242.511 1.725 242.321 2.475 241.941 3.125C241.571 3.765 241.066 4.26 240.426 4.61C239.786 4.96 239.076 5.135 238.296 5.135ZM238.296 3.935C238.786 3.935 239.246 3.82 239.676 3.59C240.106 3.36 240.451 3.015 240.711 2.555C240.981 2.095 241.116 1.535 241.116 0.875C241.116 0.215 240.986 -0.345 240.726 -0.805C240.466 -1.265 240.126 -1.605 239.706 -1.825C239.286 -2.055 238.831 -2.17 238.341 -2.17C237.841 -2.17 237.381 -2.055 236.961 -1.825C236.551 -1.605 236.221 -1.265 235.971 -0.805C235.721 -0.345 235.596 0.215 235.596 0.875C235.596 1.545 235.716 2.11 235.956 2.57C236.206 3.03 236.536 3.375 236.946 3.605C237.356 3.825 237.806 3.935 238.296 3.935ZM246.07 -1.885C246.31 -2.355 246.65 -2.72 247.09 -2.98C247.54 -3.24 248.085 -3.37 248.725 -3.37V-1.96H248.365C246.835 -1.96 246.07 -1.13 246.07 0.53V5H244.705V-3.22H246.07V-1.885ZM258.01 5.135C257.38 5.135 256.815 5.03 256.315 4.82C255.815 4.6 255.42 4.3 255.13 3.92C254.84 3.53 254.68 3.085 254.65 2.585H256.06C256.1 2.995 256.29 3.33 256.63 3.59C256.98 3.85 257.435 3.98 257.995 3.98C258.515 3.98 258.925 3.865 259.225 3.635C259.525 3.405 259.675 3.115 259.675 2.765C259.675 2.405 259.515 2.14 259.195 1.97C258.875 1.79 258.38 1.615 257.71 1.445C257.1 1.285 256.6 1.125 256.21 0.965C255.83 0.795 255.5 0.55 255.22 0.23C254.95 -0.1 254.815 -0.53 254.815 -1.06C254.815 -1.48 254.94 -1.865 255.19 -2.215C255.44 -2.565 255.795 -2.84 256.255 -3.04C256.715 -3.25 257.24 -3.355 257.83 -3.355C258.74 -3.355 259.475 -3.125 260.035 -2.665C260.595 -2.205 260.895 -1.575 260.935 -0.775H259.57C259.54 -1.205 259.365 -1.55 259.045 -1.81C258.735 -2.07 258.315 -2.2 257.785 -2.2C257.295 -2.2 256.905 -2.095 256.615 -1.885C256.325 -1.675 256.18 -1.4 256.18 -1.06C256.18 -0.79 256.265 -0.565 256.435 -0.385C256.615 -0.215 256.835 -0.0750002 257.095 0.0349995C257.365 0.135 257.735 0.25 258.205 0.38C258.795 0.54 259.275 0.7 259.645 0.86C260.015 1.01 260.33 1.24 260.59 1.55C260.86 1.86 261 2.265 261.01 2.765C261.01 3.215 260.885 3.62 260.635 3.98C260.385 4.34 260.03 4.625 259.57 4.835C259.12 5.035 258.6 5.135 258.01 5.135ZM264.042 -4.555C263.782 -4.555 263.562 -4.645 263.382 -4.825C263.202 -5.005 263.112 -5.225 263.112 -5.485C263.112 -5.745 263.202 -5.965 263.382 -6.145C263.562 -6.325 263.782 -6.415 264.042 -6.415C264.292 -6.415 264.502 -6.325 264.672 -6.145C264.852 -5.965 264.942 -5.745 264.942 -5.485C264.942 -5.225 264.852 -5.005 264.672 -4.825C264.502 -4.645 264.292 -4.555 264.042 -4.555ZM264.702 -3.22V5H263.337V-3.22H264.702ZM269.093 -2.095V2.75C269.093 3.15 269.178 3.435 269.348 3.605C269.518 3.765 269.813 3.845 270.233 3.845H271.238V5H270.008C269.248 5 268.678 4.825 268.298 4.475C267.918 4.125 267.728 3.55 267.728 2.75V-2.095H266.663V-3.22H267.728V-5.29H269.093V-3.22H271.238V-2.095H269.093ZM277.181 0.86C277.181 0.0199997 277.351 -0.715 277.691 -1.345C278.031 -1.985 278.496 -2.48 279.086 -2.83C279.686 -3.18 280.351 -3.355 281.081 -3.355C281.801 -3.355 282.426 -3.2 282.956 -2.89C283.486 -2.58 283.881 -2.19 284.141 -1.72V-3.22H285.521V5H284.141V3.47C283.871 3.95 283.466 4.35 282.926 4.67C282.396 4.98 281.776 5.135 281.066 5.135C280.336 5.135 279.676 4.955 279.086 4.595C278.496 4.235 278.031 3.73 277.691 3.08C277.351 2.43 277.181 1.69 277.181 0.86ZM284.141 0.875C284.141 0.255 284.016 -0.285 283.766 -0.745C283.516 -1.205 283.176 -1.555 282.746 -1.795C282.326 -2.045 281.861 -2.17 281.351 -2.17C280.841 -2.17 280.376 -2.05 279.956 -1.81C279.536 -1.57 279.201 -1.22 278.951 -0.76C278.701 -0.3 278.576 0.24 278.576 0.86C278.576 1.49 278.701 2.04 278.951 2.51C279.201 2.97 279.536 3.325 279.956 3.575C280.376 3.815 280.841 3.935 281.351 3.935C281.861 3.935 282.326 3.815 282.746 3.575C283.176 3.325 283.516 2.97 283.766 2.51C284.016 2.04 284.141 1.495 284.141 0.875ZM298.113 -3.37C298.753 -3.37 299.323 -3.235 299.823 -2.965C300.323 -2.705 300.718 -2.31 301.008 -1.78C301.298 -1.25 301.443 -0.605 301.443 0.155V5H300.093V0.35C300.093 -0.47 299.888 -1.095 299.478 -1.525C299.078 -1.965 298.533 -2.185 297.843 -2.185C297.133 -2.185 296.568 -1.955 296.148 -1.495C295.728 -1.045 295.518 -0.39 295.518 0.47V5H294.168V0.35C294.168 -0.47 293.963 -1.095 293.553 -1.525C293.153 -1.965 292.608 -2.185 291.918 -2.185C291.208 -2.185 290.643 -1.955 290.223 -1.495C289.803 -1.045 289.593 -0.39 289.593 0.47V5H288.228V-3.22H289.593V-2.035C289.863 -2.465 290.223 -2.795 290.673 -3.025C291.133 -3.255 291.638 -3.37 292.188 -3.37C292.878 -3.37 293.488 -3.215 294.018 -2.905C294.548 -2.595 294.943 -2.14 295.203 -1.54C295.433 -2.12 295.813 -2.57 296.343 -2.89C296.873 -3.21 297.463 -3.37 298.113 -3.37ZM311.582 0.575C311.582 0.835 311.567 1.11 311.537 1.4H304.967C305.017 2.21 305.292 2.845 305.792 3.305C306.302 3.755 306.917 3.98 307.637 3.98C308.227 3.98 308.717 3.845 309.107 3.575C309.507 3.295 309.787 2.925 309.947 2.465H311.417C311.197 3.255 310.757 3.9 310.097 4.4C309.437 4.89 308.617 5.135 307.637 5.135C306.857 5.135 306.157 4.96 305.537 4.61C304.927 4.26 304.447 3.765 304.097 3.125C303.747 2.475 303.572 1.725 303.572 0.875C303.572 0.0249998 303.742 -0.72 304.082 -1.36C304.422 -2 304.897 -2.49 305.507 -2.83C306.127 -3.18 306.837 -3.355 307.637 -3.355C308.417 -3.355 309.107 -3.185 309.707 -2.845C310.307 -2.505 310.767 -2.035 311.087 -1.435C311.417 -0.845 311.582 -0.175 311.582 0.575ZM310.172 0.29C310.172 -0.23 310.057 -0.675 309.827 -1.045C309.597 -1.425 309.282 -1.71 308.882 -1.9C308.492 -2.1 308.057 -2.2 307.577 -2.2C306.887 -2.2 306.297 -1.98 305.807 -1.54C305.327 -1.1 305.052 -0.49 304.982 0.29H310.172ZM315.449 -2.095V2.75C315.449 3.15 315.534 3.435 315.704 3.605C315.874 3.765 316.169 3.845 316.589 3.845H317.594V5H316.364C315.604 5 315.034 4.825 314.654 4.475C314.274 4.125 314.084 3.55 314.084 2.75V-2.095H313.019V-3.22H314.084V-5.29H315.449V-3.22H317.594V-2.095H315.449ZM323.537 0.875C323.537 0.0249998 323.707 -0.715 324.047 -1.345C324.387 -1.985 324.857 -2.48 325.457 -2.83C326.067 -3.18 326.762 -3.355 327.542 -3.355C328.552 -3.355 329.382 -3.11 330.032 -2.62C330.692 -2.13 331.127 -1.45 331.337 -0.58H329.867C329.727 -1.08 329.452 -1.475 329.042 -1.765C328.642 -2.055 328.142 -2.2 327.542 -2.2C326.762 -2.2 326.132 -1.93 325.652 -1.39C325.172 -0.86 324.932 -0.105 324.932 0.875C324.932 1.865 325.172 2.63 325.652 3.17C326.132 3.71 326.762 3.98 327.542 3.98C328.142 3.98 328.642 3.84 329.042 3.56C329.442 3.28 329.717 2.88 329.867 2.36H331.337C331.117 3.2 330.677 3.875 330.017 4.385C329.357 4.885 328.532 5.135 327.542 5.135C326.762 5.135 326.067 4.96 325.457 4.61C324.857 4.26 324.387 3.765 324.047 3.125C323.707 2.485 323.537 1.735 323.537 0.875ZM337.143 5.135C336.373 5.135 335.673 4.96 335.043 4.61C334.423 4.26 333.933 3.765 333.573 3.125C333.223 2.475 333.048 1.725 333.048 0.875C333.048 0.0349997 333.228 -0.705 333.588 -1.345C333.958 -1.995 334.458 -2.49 335.088 -2.83C335.718 -3.18 336.423 -3.355 337.203 -3.355C337.983 -3.355 338.688 -3.18 339.318 -2.83C339.948 -2.49 340.443 -2 340.803 -1.36C341.173 -0.72 341.358 0.0249998 341.358 0.875C341.358 1.725 341.168 2.475 340.788 3.125C340.418 3.765 339.913 4.26 339.273 4.61C338.633 4.96 337.923 5.135 337.143 5.135ZM337.143 3.935C337.633 3.935 338.093 3.82 338.523 3.59C338.953 3.36 339.298 3.015 339.558 2.555C339.828 2.095 339.963 1.535 339.963 0.875C339.963 0.215 339.833 -0.345 339.573 -0.805C339.313 -1.265 338.973 -1.605 338.553 -1.825C338.133 -2.055 337.678 -2.17 337.188 -2.17C336.688 -2.17 336.228 -2.055 335.808 -1.825C335.398 -1.605 335.068 -1.265 334.818 -0.805C334.568 -0.345 334.443 0.215 334.443 0.875C334.443 1.545 334.563 2.11 334.803 2.57C335.053 3.03 335.383 3.375 335.793 3.605C336.203 3.825 336.653 3.935 337.143 3.935ZM347.558 -3.37C348.558 -3.37 349.368 -3.065 349.988 -2.455C350.608 -1.855 350.918 -0.985 350.918 0.155V5H349.568V0.35C349.568 -0.47 349.363 -1.095 348.953 -1.525C348.543 -1.965 347.983 -2.185 347.273 -2.185C346.553 -2.185 345.978 -1.96 345.548 -1.51C345.128 -1.06 344.918 -0.405 344.918 0.455V5H343.553V-3.22H344.918V-2.05C345.188 -2.47 345.553 -2.795 346.013 -3.025C346.483 -3.255 346.998 -3.37 347.558 -3.37ZM356.458 5.135C355.828 5.135 355.263 5.03 354.763 4.82C354.263 4.6 353.868 4.3 353.578 3.92C353.288 3.53 353.128 3.085 353.098 2.585H354.508C354.548 2.995 354.738 3.33 355.078 3.59C355.428 3.85 355.883 3.98 356.443 3.98C356.963 3.98 357.373 3.865 357.673 3.635C357.973 3.405 358.123 3.115 358.123 2.765C358.123 2.405 357.963 2.14 357.643 1.97C357.323 1.79 356.828 1.615 356.158 1.445C355.548 1.285 355.048 1.125 354.658 0.965C354.278 0.795 353.948 0.55 353.668 0.23C353.398 -0.1 353.263 -0.53 353.263 -1.06C353.263 -1.48 353.388 -1.865 353.638 -2.215C353.888 -2.565 354.243 -2.84 354.703 -3.04C355.163 -3.25 355.688 -3.355 356.278 -3.355C357.188 -3.355 357.923 -3.125 358.483 -2.665C359.043 -2.205 359.343 -1.575 359.383 -0.775H358.018C357.988 -1.205 357.813 -1.55 357.493 -1.81C357.183 -2.07 356.763 -2.2 356.233 -2.2C355.743 -2.2 355.353 -2.095 355.063 -1.885C354.773 -1.675 354.628 -1.4 354.628 -1.06C354.628 -0.79 354.713 -0.565 354.883 -0.385C355.063 -0.215 355.283 -0.0750002 355.543 0.0349995C355.813 0.135 356.183 0.25 356.653 0.38C357.243 0.54 357.723 0.7 358.093 0.86C358.463 1.01 358.778 1.24 359.038 1.55C359.308 1.86 359.448 2.265 359.458 2.765C359.458 3.215 359.333 3.62 359.083 3.98C358.833 4.34 358.478 4.625 358.018 4.835C357.568 5.035 357.048 5.135 356.458 5.135ZM369.284 0.575C369.284 0.835 369.269 1.11 369.239 1.4H362.669C362.719 2.21 362.994 2.845 363.494 3.305C364.004 3.755 364.619 3.98 365.339 3.98C365.929 3.98 366.419 3.845 366.809 3.575C367.209 3.295 367.489 2.925 367.649 2.465H369.119C368.899 3.255 368.459 3.9 367.799 4.4C367.139 4.89 366.319 5.135 365.339 5.135C364.559 5.135 363.859 4.96 363.239 4.61C362.629 4.26 362.149 3.765 361.799 3.125C361.449 2.475 361.274 1.725 361.274 0.875C361.274 0.0249998 361.444 -0.72 361.784 -1.36C362.124 -2 362.599 -2.49 363.209 -2.83C363.829 -3.18 364.539 -3.355 365.339 -3.355C366.119 -3.355 366.809 -3.185 367.409 -2.845C368.009 -2.505 368.469 -2.035 368.789 -1.435C369.119 -0.845 369.284 -0.175 369.284 0.575ZM367.874 0.29C367.874 -0.23 367.759 -0.675 367.529 -1.045C367.299 -1.425 366.984 -1.71 366.584 -1.9C366.194 -2.1 365.759 -2.2 365.279 -2.2C364.589 -2.2 363.999 -1.98 363.509 -1.54C363.029 -1.1 362.754 -0.49 362.684 0.29H367.874ZM370.976 0.875C370.976 0.0249998 371.146 -0.715 371.486 -1.345C371.826 -1.985 372.296 -2.48 372.896 -2.83C373.506 -3.18 374.201 -3.355 374.981 -3.355C375.991 -3.355 376.821 -3.11 377.471 -2.62C378.131 -2.13 378.566 -1.45 378.776 -0.58H377.306C377.166 -1.08 376.891 -1.475 376.481 -1.765C376.081 -2.055 375.581 -2.2 374.981 -2.2C374.201 -2.2 373.571 -1.93 373.091 -1.39C372.611 -0.86 372.371 -0.105 372.371 0.875C372.371 1.865 372.611 2.63 373.091 3.17C373.571 3.71 374.201 3.98 374.981 3.98C375.581 3.98 376.081 3.84 376.481 3.56C376.881 3.28 377.156 2.88 377.306 2.36H378.776C378.556 3.2 378.116 3.875 377.456 4.385C376.796 4.885 375.971 5.135 374.981 5.135C374.201 5.135 373.506 4.96 372.896 4.61C372.296 4.26 371.826 3.765 371.486 3.125C371.146 2.485 370.976 1.735 370.976 0.875ZM382.663 -2.095V2.75C382.663 3.15 382.748 3.435 382.918 3.605C383.088 3.765 383.383 3.845 383.803 3.845H384.808V5H383.578C382.818 5 382.248 4.825 381.868 4.475C381.488 4.125 381.298 3.55 381.298 2.75V-2.095H380.233V-3.22H381.298V-5.29H382.663V-3.22H384.808V-2.095H382.663ZM394.361 0.575C394.361 0.835 394.346 1.11 394.316 1.4H387.746C387.796 2.21 388.071 2.845 388.571 3.305C389.081 3.755 389.696 3.98 390.416 3.98C391.006 3.98 391.496 3.845 391.886 3.575C392.286 3.295 392.566 2.925 392.726 2.465H394.196C393.976 3.255 393.536 3.9 392.876 4.4C392.216 4.89 391.396 5.135 390.416 5.135C389.636 5.135 388.936 4.96 388.316 4.61C387.706 4.26 387.226 3.765 386.876 3.125C386.526 2.475 386.351 1.725 386.351 0.875C386.351 0.0249998 386.521 -0.72 386.861 -1.36C387.201 -2 387.676 -2.49 388.286 -2.83C388.906 -3.18 389.616 -3.355 390.416 -3.355C391.196 -3.355 391.886 -3.185 392.486 -2.845C393.086 -2.505 393.546 -2.035 393.866 -1.435C394.196 -0.845 394.361 -0.175 394.361 0.575ZM392.951 0.29C392.951 -0.23 392.836 -0.675 392.606 -1.045C392.376 -1.425 392.061 -1.71 391.661 -1.9C391.271 -2.1 390.836 -2.2 390.356 -2.2C389.666 -2.2 389.076 -1.98 388.586 -1.54C388.106 -1.1 387.831 -0.49 387.761 0.29H392.951ZM398.228 -2.095V2.75C398.228 3.15 398.313 3.435 398.483 3.605C398.653 3.765 398.948 3.845 399.368 3.845H400.373V5H399.143C398.383 5 397.813 4.825 397.433 4.475C397.053 4.125 396.863 3.55 396.863 2.75V-2.095H395.798V-3.22H396.863V-5.29H398.228V-3.22H400.373V-2.095H398.228ZM409.717 -3.22V5H408.352V3.785C408.092 4.205 407.727 4.535 407.257 4.775C406.797 5.005 406.287 5.12 405.727 5.12C405.087 5.12 404.512 4.99 404.002 4.73C403.492 4.46 403.087 4.06 402.787 3.53C402.497 3 402.352 2.355 402.352 1.595V-3.22H403.702V1.415C403.702 2.225 403.907 2.85 404.317 3.29C404.727 3.72 405.287 3.935 405.997 3.935C406.727 3.935 407.302 3.71 407.722 3.26C408.142 2.81 408.352 2.155 408.352 1.295V-3.22H409.717ZM413.787 -1.885C414.027 -2.355 414.367 -2.72 414.807 -2.98C415.257 -3.24 415.802 -3.37 416.442 -3.37V-1.96H416.082C414.552 -1.96 413.787 -1.13 413.787 0.53V5H412.422V-3.22H413.787V-1.885ZM418.853 5.09C418.593 5.09 418.373 5 418.193 4.82C418.013 4.64 417.923 4.42 417.923 4.16C417.923 3.9 418.013 3.68 418.193 3.5C418.373 3.32 418.593 3.23 418.853 3.23C419.103 3.23 419.313 3.32 419.483 3.5C419.663 3.68 419.753 3.9 419.753 4.16C419.753 4.42 419.663 4.64 419.483 4.82C419.313 5 419.103 5.09 418.853 5.09Z" fill="#6F6F6F"/>
<path d="M423.52 4.89H427.18V6H422.155V-4.455H423.52V4.89ZM432.615 6.135C431.845 6.135 431.145 5.96 430.515 5.61C429.895 5.26 429.405 4.765 429.045 4.125C428.695 3.475 428.52 2.725 428.52 1.875C428.52 1.035 428.7 0.295 429.06 -0.345C429.43 -0.995 429.93 -1.49 430.56 -1.83C431.19 -2.18 431.895 -2.355 432.675 -2.355C433.455 -2.355 434.16 -2.18 434.79 -1.83C435.42 -1.49 435.915 -1 436.275 -0.36C436.645 0.28 436.83 1.025 436.83 1.875C436.83 2.725 436.64 3.475 436.26 4.125C435.89 4.765 435.385 5.26 434.745 5.61C434.105 5.96 433.395 6.135 432.615 6.135ZM432.615 4.935C433.105 4.935 433.565 4.82 433.995 4.59C434.425 4.36 434.77 4.015 435.03 3.555C435.3 3.095 435.435 2.535 435.435 1.875C435.435 1.215 435.305 0.655 435.045 0.195C434.785 -0.265 434.445 -0.605 434.025 -0.825C433.605 -1.055 433.15 -1.17 432.66 -1.17C432.16 -1.17 431.7 -1.055 431.28 -0.825C430.87 -0.605 430.54 -0.265 430.29 0.195C430.04 0.655 429.915 1.215 429.915 1.875C429.915 2.545 430.035 3.11 430.275 3.57C430.525 4.03 430.855 4.375 431.265 4.605C431.675 4.825 432.125 4.935 432.615 4.935ZM440.389 -0.885C440.629 -1.355 440.969 -1.72 441.409 -1.98C441.859 -2.24 442.404 -2.37 443.044 -2.37V-0.96H442.684C441.154 -0.96 440.389 -0.13 440.389 1.53V6H439.024V-2.22H440.389V-0.885ZM452.52 1.575C452.52 1.835 452.505 2.11 452.475 2.4H445.905C445.955 3.21 446.23 3.845 446.73 4.305C447.24 4.755 447.855 4.98 448.575 4.98C449.165 4.98 449.655 4.845 450.045 4.575C450.445 4.295 450.725 3.925 450.885 3.465H452.355C452.135 4.255 451.695 4.9 451.035 5.4C450.375 5.89 449.555 6.135 448.575 6.135C447.795 6.135 447.095 5.96 446.475 5.61C445.865 5.26 445.385 4.765 445.035 4.125C444.685 3.475 444.51 2.725 444.51 1.875C444.51 1.025 444.68 0.28 445.02 -0.36C445.36 -1 445.835 -1.49 446.445 -1.83C447.065 -2.18 447.775 -2.355 448.575 -2.355C449.355 -2.355 450.045 -2.185 450.645 -1.845C451.245 -1.505 451.705 -1.035 452.025 -0.435C452.355 0.155 452.52 0.825 452.52 1.575ZM451.11 1.29C451.11 0.77 450.995 0.325 450.765 -0.0450004C450.535 -0.425 450.22 -0.71 449.82 -0.9C449.43 -1.1 448.995 -1.2 448.515 -1.2C447.825 -1.2 447.235 -0.98 446.745 -0.54C446.265 -0.1 445.99 0.51 445.92 1.29H451.11ZM464.607 -2.37C465.247 -2.37 465.817 -2.235 466.317 -1.965C466.817 -1.705 467.212 -1.31 467.502 -0.78C467.792 -0.25 467.937 0.395 467.937 1.155V6H466.587V1.35C466.587 0.53 466.382 -0.0950004 465.972 -0.525C465.572 -0.965 465.027 -1.185 464.337 -1.185C463.627 -1.185 463.062 -0.955 462.642 -0.495C462.222 -0.0450003 462.012 0.61 462.012 1.47V6H460.662V1.35C460.662 0.53 460.457 -0.0950004 460.047 -0.525C459.647 -0.965 459.102 -1.185 458.412 -1.185C457.702 -1.185 457.137 -0.955 456.717 -0.495C456.297 -0.0450003 456.087 0.61 456.087 1.47V6H454.722V-2.22H456.087V-1.035C456.357 -1.465 456.717 -1.795 457.167 -2.025C457.627 -2.255 458.132 -2.37 458.682 -2.37C459.372 -2.37 459.982 -2.215 460.512 -1.905C461.042 -1.595 461.437 -1.14 461.697 -0.54C461.927 -1.12 462.307 -1.57 462.837 -1.89C463.367 -2.21 463.957 -2.37 464.607 -2.37ZM475.68 -3.555C475.42 -3.555 475.2 -3.645 475.02 -3.825C474.84 -4.005 474.75 -4.225 474.75 -4.485C474.75 -4.745 474.84 -4.965 475.02 -5.145C475.2 -5.325 475.42 -5.415 475.68 -5.415C475.93 -5.415 476.14 -5.325 476.31 -5.145C476.49 -4.965 476.58 -4.745 476.58 -4.485C476.58 -4.225 476.49 -4.005 476.31 -3.825C476.14 -3.645 475.93 -3.555 475.68 -3.555ZM476.34 -2.22V6H474.975V-2.22H476.34ZM480.431 -0.705C480.701 -1.175 481.101 -1.565 481.631 -1.875C482.171 -2.195 482.796 -2.355 483.506 -2.355C484.236 -2.355 484.896 -2.18 485.486 -1.83C486.086 -1.48 486.556 -0.985 486.896 -0.345C487.236 0.285 487.406 1.02 487.406 1.86C487.406 2.69 487.236 3.43 486.896 4.08C486.556 4.73 486.086 5.235 485.486 5.595C484.896 5.955 484.236 6.135 483.506 6.135C482.806 6.135 482.186 5.98 481.646 5.67C481.116 5.35 480.711 4.955 480.431 4.485V9.9H479.066V-2.22H480.431V-0.705ZM486.011 1.86C486.011 1.24 485.886 0.7 485.636 0.24C485.386 -0.22 485.046 -0.57 484.616 -0.81C484.196 -1.05 483.731 -1.17 483.221 -1.17C482.721 -1.17 482.256 -1.045 481.826 -0.795C481.406 -0.555 481.066 -0.2 480.806 0.27C480.556 0.73 480.431 1.265 480.431 1.875C480.431 2.495 480.556 3.04 480.806 3.51C481.066 3.97 481.406 4.325 481.826 4.575C482.256 4.815 482.721 4.935 483.221 4.935C483.731 4.935 484.196 4.815 484.616 4.575C485.046 4.325 485.386 3.97 485.636 3.51C485.886 3.04 486.011 2.49 486.011 1.86ZM492.513 6.135C491.883 6.135 491.318 6.03 490.818 5.82C490.318 5.6 489.923 5.3 489.633 4.92C489.343 4.53 489.183 4.085 489.153 3.585H490.563C490.603 3.995 490.793 4.33 491.133 4.59C491.483 4.85 491.938 4.98 492.498 4.98C493.018 4.98 493.428 4.865 493.728 4.635C494.028 4.405 494.178 4.115 494.178 3.765C494.178 3.405 494.018 3.14 493.698 2.97C493.378 2.79 492.883 2.615 492.213 2.445C491.603 2.285 491.103 2.125 490.713 1.965C490.333 1.795 490.003 1.55 489.723 1.23C489.453 0.9 489.318 0.47 489.318 -0.0600002C489.318 -0.48 489.443 -0.865 489.693 -1.215C489.943 -1.565 490.298 -1.84 490.758 -2.04C491.218 -2.25 491.743 -2.355 492.333 -2.355C493.243 -2.355 493.978 -2.125 494.538 -1.665C495.098 -1.205 495.398 -0.575 495.438 0.225H494.073C494.043 -0.205 493.868 -0.55 493.548 -0.81C493.238 -1.07 492.818 -1.2 492.288 -1.2C491.798 -1.2 491.408 -1.095 491.118 -0.885C490.828 -0.675 490.683 -0.4 490.683 -0.0600002C490.683 0.21 490.768 0.435 490.938 0.615C491.118 0.785 491.338 0.925 491.598 1.035C491.868 1.135 492.238 1.25 492.708 1.38C493.298 1.54 493.778 1.7 494.148 1.86C494.518 2.01 494.833 2.24 495.093 2.55C495.363 2.86 495.503 3.265 495.513 3.765C495.513 4.215 495.388 4.62 495.138 4.98C494.888 5.34 494.533 5.625 494.073 5.835C493.623 6.035 493.103 6.135 492.513 6.135ZM505.13 -2.22V6H503.765V4.785C503.505 5.205 503.14 5.535 502.67 5.775C502.21 6.005 501.7 6.12 501.14 6.12C500.5 6.12 499.925 5.99 499.415 5.73C498.905 5.46 498.5 5.06 498.2 4.53C497.91 4 497.765 3.355 497.765 2.595V-2.22H499.115V2.415C499.115 3.225 499.32 3.85 499.73 4.29C500.14 4.72 500.7 4.935 501.41 4.935C502.14 4.935 502.715 4.71 503.135 4.26C503.555 3.81 503.765 3.155 503.765 2.295V-2.22H505.13ZM517.72 -2.37C518.36 -2.37 518.93 -2.235 519.43 -1.965C519.93 -1.705 520.325 -1.31 520.615 -0.78C520.905 -0.25 521.05 0.395 521.05 1.155V6H519.7V1.35C519.7 0.53 519.495 -0.0950004 519.085 -0.525C518.685 -0.965 518.14 -1.185 517.45 -1.185C516.74 -1.185 516.175 -0.955 515.755 -0.495C515.335 -0.0450003 515.125 0.61 515.125 1.47V6H513.775V1.35C513.775 0.53 513.57 -0.0950004 513.16 -0.525C512.76 -0.965 512.215 -1.185 511.525 -1.185C510.815 -1.185 510.25 -0.955 509.83 -0.495C509.41 -0.0450003 509.2 0.61 509.2 1.47V6H507.835V-2.22H509.2V-1.035C509.47 -1.465 509.83 -1.795 510.28 -2.025C510.74 -2.255 511.245 -2.37 511.795 -2.37C512.485 -2.37 513.095 -2.215 513.625 -1.905C514.155 -1.595 514.55 -1.14 514.81 -0.54C515.04 -1.12 515.42 -1.57 515.95 -1.89C516.48 -2.21 517.07 -2.37 517.72 -2.37ZM527.578 1.86C527.578 1.02 527.748 0.285 528.088 -0.345C528.428 -0.985 528.893 -1.48 529.483 -1.83C530.083 -2.18 530.753 -2.355 531.493 -2.355C532.133 -2.355 532.728 -2.205 533.278 -1.905C533.828 -1.615 534.248 -1.23 534.538 -0.75V-5.1H535.918V6H534.538V4.455C534.268 4.945 533.868 5.35 533.338 5.67C532.808 5.98 532.188 6.135 531.478 6.135C530.748 6.135 530.083 5.955 529.483 5.595C528.893 5.235 528.428 4.73 528.088 4.08C527.748 3.43 527.578 2.69 527.578 1.86ZM534.538 1.875C534.538 1.255 534.413 0.715 534.163 0.255C533.913 -0.205 533.573 -0.555 533.143 -0.795C532.723 -1.045 532.258 -1.17 531.748 -1.17C531.238 -1.17 530.773 -1.05 530.353 -0.81C529.933 -0.57 529.598 -0.22 529.348 0.24C529.098 0.7 528.973 1.24 528.973 1.86C528.973 2.49 529.098 3.04 529.348 3.51C529.598 3.97 529.933 4.325 530.353 4.575C530.773 4.815 531.238 4.935 531.748 4.935C532.258 4.935 532.723 4.815 533.143 4.575C533.573 4.325 533.913 3.97 534.163 3.51C534.413 3.04 534.538 2.495 534.538 1.875ZM542.21 6.135C541.44 6.135 540.74 5.96 540.11 5.61C539.49 5.26 539 4.765 538.64 4.125C538.29 3.475 538.115 2.725 538.115 1.875C538.115 1.035 538.295 0.295 538.655 -0.345C539.025 -0.995 539.525 -1.49 540.155 -1.83C540.785 -2.18 541.49 -2.355 542.27 -2.355C543.05 -2.355 543.755 -2.18 544.385 -1.83C545.015 -1.49 545.51 -1 545.87 -0.36C546.24 0.28 546.425 1.025 546.425 1.875C546.425 2.725 546.235 3.475 545.855 4.125C545.485 4.765 544.98 5.26 544.34 5.61C543.7 5.96 542.99 6.135 542.21 6.135ZM542.21 4.935C542.7 4.935 543.16 4.82 543.59 4.59C544.02 4.36 544.365 4.015 544.625 3.555C544.895 3.095 545.03 2.535 545.03 1.875C545.03 1.215 544.9 0.655 544.64 0.195C544.38 -0.265 544.04 -0.605 543.62 -0.825C543.2 -1.055 542.745 -1.17 542.255 -1.17C541.755 -1.17 541.295 -1.055 540.875 -0.825C540.465 -0.605 540.135 -0.265 539.885 0.195C539.635 0.655 539.51 1.215 539.51 1.875C539.51 2.545 539.63 3.11 539.87 3.57C540.12 4.03 540.45 4.375 540.86 4.605C541.27 4.825 541.72 4.935 542.21 4.935ZM549.984 -5.1V6H548.619V-5.1H549.984ZM556.296 6.135C555.526 6.135 554.826 5.96 554.196 5.61C553.576 5.26 553.086 4.765 552.726 4.125C552.376 3.475 552.201 2.725 552.201 1.875C552.201 1.035 552.381 0.295 552.741 -0.345C553.111 -0.995 553.611 -1.49 554.241 -1.83C554.871 -2.18 555.576 -2.355 556.356 -2.355C557.136 -2.355 557.841 -2.18 558.471 -1.83C559.101 -1.49 559.596 -1 559.956 -0.36C560.326 0.28 560.511 1.025 560.511 1.875C560.511 2.725 560.321 3.475 559.941 4.125C559.571 4.765 559.066 5.26 558.426 5.61C557.786 5.96 557.076 6.135 556.296 6.135ZM556.296 4.935C556.786 4.935 557.246 4.82 557.676 4.59C558.106 4.36 558.451 4.015 558.711 3.555C558.981 3.095 559.116 2.535 559.116 1.875C559.116 1.215 558.986 0.655 558.726 0.195C558.466 -0.265 558.126 -0.605 557.706 -0.825C557.286 -1.055 556.831 -1.17 556.341 -1.17C555.841 -1.17 555.381 -1.055 554.961 -0.825C554.551 -0.605 554.221 -0.265 553.971 0.195C553.721 0.655 553.596 1.215 553.596 1.875C553.596 2.545 553.716 3.11 553.956 3.57C554.206 4.03 554.536 4.375 554.946 4.605C555.356 4.825 555.806 4.935 556.296 4.935ZM564.07 -0.885C564.31 -1.355 564.65 -1.72 565.09 -1.98C565.54 -2.24 566.085 -2.37 566.725 -2.37V-0.96H566.365C564.835 -0.96 564.07 -0.13 564.07 1.53V6H562.705V-2.22H564.07V-0.885ZM576.01 6.135C575.38 6.135 574.815 6.03 574.315 5.82C573.815 5.6 573.42 5.3 573.13 4.92C572.84 4.53 572.68 4.085 572.65 3.585H574.06C574.1 3.995 574.29 4.33 574.63 4.59C574.98 4.85 575.435 4.98 575.995 4.98C576.515 4.98 576.925 4.865 577.225 4.635C577.525 4.405 577.675 4.115 577.675 3.765C577.675 3.405 577.515 3.14 577.195 2.97C576.875 2.79 576.38 2.615 575.71 2.445C575.1 2.285 574.6 2.125 574.21 1.965C573.83 1.795 573.5 1.55 573.22 1.23C572.95 0.9 572.815 0.47 572.815 -0.0600002C572.815 -0.48 572.94 -0.865 573.19 -1.215C573.44 -1.565 573.795 -1.84 574.255 -2.04C574.715 -2.25 575.24 -2.355 575.83 -2.355C576.74 -2.355 577.475 -2.125 578.035 -1.665C578.595 -1.205 578.895 -0.575 578.935 0.225H577.57C577.54 -0.205 577.365 -0.55 577.045 -0.81C576.735 -1.07 576.315 -1.2 575.785 -1.2C575.295 -1.2 574.905 -1.095 574.615 -0.885C574.325 -0.675 574.18 -0.4 574.18 -0.0600002C574.18 0.21 574.265 0.435 574.435 0.615C574.615 0.785 574.835 0.925 575.095 1.035C575.365 1.135 575.735 1.25 576.205 1.38C576.795 1.54 577.275 1.7 577.645 1.86C578.015 2.01 578.33 2.24 578.59 2.55C578.86 2.86 579 3.265 579.01 3.765C579.01 4.215 578.885 4.62 578.635 4.98C578.385 5.34 578.03 5.625 577.57 5.835C577.12 6.035 576.6 6.135 576.01 6.135ZM582.042 -3.555C581.782 -3.555 581.562 -3.645 581.382 -3.825C581.202 -4.005 581.112 -4.225 581.112 -4.485C581.112 -4.745 581.202 -4.965 581.382 -5.145C581.562 -5.325 581.782 -5.415 582.042 -5.415C582.292 -5.415 582.502 -5.325 582.672 -5.145C582.852 -4.965 582.942 -4.745 582.942 -4.485C582.942 -4.225 582.852 -4.005 582.672 -3.825C582.502 -3.645 582.292 -3.555 582.042 -3.555ZM582.702 -2.22V6H581.337V-2.22H582.702ZM587.093 -1.095V3.75C587.093 4.15 587.178 4.435 587.348 4.605C587.518 4.765 587.813 4.845 588.233 4.845H589.238V6H588.008C587.248 6 586.678 5.825 586.298 5.475C585.918 5.125 585.728 4.55 585.728 3.75V-1.095H584.663V-2.22H585.728V-4.29H587.093V-2.22H589.238V-1.095H587.093ZM595.181 1.86C595.181 1.02 595.351 0.285 595.691 -0.345C596.031 -0.985 596.496 -1.48 597.086 -1.83C597.686 -2.18 598.351 -2.355 599.081 -2.355C599.801 -2.355 600.426 -2.2 600.956 -1.89C601.486 -1.58 601.881 -1.19 602.141 -0.72V-2.22H603.521V6H602.141V4.47C601.871 4.95 601.466 5.35 600.926 5.67C600.396 5.98 599.776 6.135 599.066 6.135C598.336 6.135 597.676 5.955 597.086 5.595C596.496 5.235 596.031 4.73 595.691 4.08C595.351 3.43 595.181 2.69 595.181 1.86ZM602.141 1.875C602.141 1.255 602.016 0.715 601.766 0.255C601.516 -0.205 601.176 -0.555 600.746 -0.795C600.326 -1.045 599.861 -1.17 599.351 -1.17C598.841 -1.17 598.376 -1.05 597.956 -0.81C597.536 -0.57 597.201 -0.22 596.951 0.24C596.701 0.7 596.576 1.24 596.576 1.86C596.576 2.49 596.701 3.04 596.951 3.51C597.201 3.97 597.536 4.325 597.956 4.575C598.376 4.815 598.841 4.935 599.351 4.935C599.861 4.935 600.326 4.815 600.746 4.575C601.176 4.325 601.516 3.97 601.766 3.51C602.016 3.04 602.141 2.495 602.141 1.875ZM616.113 -2.37C616.753 -2.37 617.323 -2.235 617.823 -1.965C618.323 -1.705 618.718 -1.31 619.008 -0.78C619.298 -0.25 619.443 0.395 619.443 1.155V6H618.093V1.35C618.093 0.53 617.888 -0.0950004 617.478 -0.525C617.078 -0.965 616.533 -1.185 615.843 -1.185C615.133 -1.185 614.568 -0.955 614.148 -0.495C613.728 -0.0450003 613.518 0.61 613.518 1.47V6H612.168V1.35C612.168 0.53 611.963 -0.0950004 611.553 -0.525C611.153 -0.965 610.608 -1.185 609.918 -1.185C609.208 -1.185 608.643 -0.955 608.223 -0.495C607.803 -0.0450003 607.593 0.61 607.593 1.47V6H606.228V-2.22H607.593V-1.035C607.863 -1.465 608.223 -1.795 608.673 -2.025C609.133 -2.255 609.638 -2.37 610.188 -2.37C610.878 -2.37 611.488 -2.215 612.018 -1.905C612.548 -1.595 612.943 -1.14 613.203 -0.54C613.433 -1.12 613.813 -1.57 614.343 -1.89C614.873 -2.21 615.463 -2.37 616.113 -2.37ZM629.582 1.575C629.582 1.835 629.567 2.11 629.537 2.4H622.967C623.017 3.21 623.292 3.845 623.792 4.305C624.302 4.755 624.917 4.98 625.637 4.98C626.227 4.98 626.717 4.845 627.107 4.575C627.507 4.295 627.787 3.925 627.947 3.465H629.417C629.197 4.255 628.757 4.9 628.097 5.4C627.437 5.89 626.617 6.135 625.637 6.135C624.857 6.135 624.157 5.96 623.537 5.61C622.927 5.26 622.447 4.765 622.097 4.125C621.747 3.475 621.572 2.725 621.572 1.875C621.572 1.025 621.742 0.28 622.082 -0.36C622.422 -1 622.897 -1.49 623.507 -1.83C624.127 -2.18 624.837 -2.355 625.637 -2.355C626.417 -2.355 627.107 -2.185 627.707 -1.845C628.307 -1.505 628.767 -1.035 629.087 -0.435C629.417 0.155 629.582 0.825 629.582 1.575ZM628.172 1.29C628.172 0.77 628.057 0.325 627.827 -0.0450004C627.597 -0.425 627.282 -0.71 626.882 -0.9C626.492 -1.1 626.057 -1.2 625.577 -1.2C624.887 -1.2 624.297 -0.98 623.807 -0.54C623.327 -0.1 623.052 0.51 622.982 1.29H628.172ZM633.449 -1.095V3.75C633.449 4.15 633.534 4.435 633.704 4.605C633.874 4.765 634.169 4.845 634.589 4.845H635.594V6H634.364C633.604 6 633.034 5.825 632.654 5.475C632.274 5.125 632.084 4.55 632.084 3.75V-1.095H631.019V-2.22H632.084V-4.29H633.449V-2.22H635.594V-1.095H633.449ZM641.537 1.875C641.537 1.025 641.707 0.285 642.047 -0.345C642.387 -0.985 642.857 -1.48 643.457 -1.83C644.067 -2.18 644.762 -2.355 645.542 -2.355C646.552 -2.355 647.382 -2.11 648.032 -1.62C648.692 -1.13 649.127 -0.45 649.337 0.42H647.867C647.727 -0.0800003 647.452 -0.475 647.042 -0.765001C646.642 -1.055 646.142 -1.2 645.542 -1.2C644.762 -1.2 644.132 -0.93 643.652 -0.39C643.172 0.14 642.932 0.895 642.932 1.875C642.932 2.865 643.172 3.63 643.652 4.17C644.132 4.71 644.762 4.98 645.542 4.98C646.142 4.98 646.642 4.84 647.042 4.56C647.442 4.28 647.717 3.88 647.867 3.36H649.337C649.117 4.2 648.677 4.875 648.017 5.385C647.357 5.885 646.532 6.135 645.542 6.135C644.762 6.135 644.067 5.96 643.457 5.61C642.857 5.26 642.387 4.765 642.047 4.125C641.707 3.485 641.537 2.735 641.537 1.875ZM655.143 6.135C654.373 6.135 653.673 5.96 653.043 5.61C652.423 5.26 651.933 4.765 651.573 4.125C651.223 3.475 651.048 2.725 651.048 1.875C651.048 1.035 651.228 0.295 651.588 -0.345C651.958 -0.995 652.458 -1.49 653.088 -1.83C653.718 -2.18 654.423 -2.355 655.203 -2.355C655.983 -2.355 656.688 -2.18 657.318 -1.83C657.948 -1.49 658.443 -1 658.803 -0.36C659.173 0.28 659.358 1.025 659.358 1.875C659.358 2.725 659.168 3.475 658.788 4.125C658.418 4.765 657.913 5.26 657.273 5.61C656.633 5.96 655.923 6.135 655.143 6.135ZM655.143 4.935C655.633 4.935 656.093 4.82 656.523 4.59C656.953 4.36 657.298 4.015 657.558 3.555C657.828 3.095 657.963 2.535 657.963 1.875C657.963 1.215 657.833 0.655 657.573 0.195C657.313 -0.265 656.973 -0.605 656.553 -0.825C656.133 -1.055 655.678 -1.17 655.188 -1.17C654.688 -1.17 654.228 -1.055 653.808 -0.825C653.398 -0.605 653.068 -0.265 652.818 0.195C652.568 0.655 652.443 1.215 652.443 1.875C652.443 2.545 652.563 3.11 652.803 3.57C653.053 4.03 653.383 4.375 653.793 4.605C654.203 4.825 654.653 4.935 655.143 4.935ZM665.558 -2.37C666.558 -2.37 667.368 -2.065 667.988 -1.455C668.608 -0.855 668.918 0.0149999 668.918 1.155V6H667.568V1.35C667.568 0.53 667.363 -0.0950004 666.953 -0.525C666.543 -0.965 665.983 -1.185 665.273 -1.185C664.553 -1.185 663.978 -0.96 663.548 -0.51C663.128 -0.0600004 662.918 0.595 662.918 1.455V6H661.553V-2.22H662.918V-1.05C663.188 -1.47 663.553 -1.795 664.013 -2.025C664.483 -2.255 664.998 -2.37 665.558 -2.37ZM674.458 6.135C673.828 6.135 673.263 6.03 672.763 5.82C672.263 5.6 671.868 5.3 671.578 4.92C671.288 4.53 671.128 4.085 671.098 3.585H672.508C672.548 3.995 672.738 4.33 673.078 4.59C673.428 4.85 673.883 4.98 674.443 4.98C674.963 4.98 675.373 4.865 675.673 4.635C675.973 4.405 676.123 4.115 676.123 3.765C676.123 3.405 675.963 3.14 675.643 2.97C675.323 2.79 674.828 2.615 674.158 2.445C673.548 2.285 673.048 2.125 672.658 1.965C672.278 1.795 671.948 1.55 671.668 1.23C671.398 0.9 671.263 0.47 671.263 -0.0600002C671.263 -0.48 671.388 -0.865 671.638 -1.215C671.888 -1.565 672.243 -1.84 672.703 -2.04C673.163 -2.25 673.688 -2.355 674.278 -2.355C675.188 -2.355 675.923 -2.125 676.483 -1.665C677.043 -1.205 677.343 -0.575 677.383 0.225H676.018C675.988 -0.205 675.813 -0.55 675.493 -0.81C675.183 -1.07 674.763 -1.2 674.233 -1.2C673.743 -1.2 673.353 -1.095 673.063 -0.885C672.773 -0.675 672.628 -0.4 672.628 -0.0600002C672.628 0.21 672.713 0.435 672.883 0.615C673.063 0.785 673.283 0.925 673.543 1.035C673.813 1.135 674.183 1.25 674.653 1.38C675.243 1.54 675.723 1.7 676.093 1.86C676.463 2.01 676.778 2.24 677.038 2.55C677.308 2.86 677.448 3.265 677.458 3.765C677.458 4.215 677.333 4.62 677.083 4.98C676.833 5.34 676.478 5.625 676.018 5.835C675.568 6.035 675.048 6.135 674.458 6.135ZM687.284 1.575C687.284 1.835 687.269 2.11 687.239 2.4H680.669C680.719 3.21 680.994 3.845 681.494 4.305C682.004 4.755 682.619 4.98 683.339 4.98C683.929 4.98 684.419 4.845 684.809 4.575C685.209 4.295 685.489 3.925 685.649 3.465H687.119C686.899 4.255 686.459 4.9 685.799 5.4C685.139 5.89 684.319 6.135 683.339 6.135C682.559 6.135 681.859 5.96 681.239 5.61C680.629 5.26 680.149 4.765 679.799 4.125C679.449 3.475 679.274 2.725 679.274 1.875C679.274 1.025 679.444 0.28 679.784 -0.36C680.124 -1 680.599 -1.49 681.209 -1.83C681.829 -2.18 682.539 -2.355 683.339 -2.355C684.119 -2.355 684.809 -2.185 685.409 -1.845C686.009 -1.505 686.469 -1.035 686.789 -0.435C687.119 0.155 687.284 0.825 687.284 1.575ZM685.874 1.29C685.874 0.77 685.759 0.325 685.529 -0.0450004C685.299 -0.425 684.984 -0.71 684.584 -0.9C684.194 -1.1 683.759 -1.2 683.279 -1.2C682.589 -1.2 681.999 -0.98 681.509 -0.54C681.029 -0.1 680.754 0.51 680.684 1.29H685.874ZM688.976 1.875C688.976 1.025 689.146 0.285 689.486 -0.345C689.826 -0.985 690.296 -1.48 690.896 -1.83C691.506 -2.18 692.201 -2.355 692.981 -2.355C693.991 -2.355 694.821 -2.11 695.471 -1.62C696.131 -1.13 696.566 -0.45 696.776 0.42H695.306C695.166 -0.0800003 694.891 -0.475 694.481 -0.765001C694.081 -1.055 693.581 -1.2 692.981 -1.2C692.201 -1.2 691.571 -0.93 691.091 -0.39C690.611 0.14 690.371 0.895 690.371 1.875C690.371 2.865 690.611 3.63 691.091 4.17C691.571 4.71 692.201 4.98 692.981 4.98C693.581 4.98 694.081 4.84 694.481 4.56C694.881 4.28 695.156 3.88 695.306 3.36H696.776C696.556 4.2 696.116 4.875 695.456 5.385C694.796 5.885 693.971 6.135 692.981 6.135C692.201 6.135 691.506 5.96 690.896 5.61C690.296 5.26 689.826 4.765 689.486 4.125C689.146 3.485 688.976 2.735 688.976 1.875ZM700.663 -1.095V3.75C700.663 4.15 700.748 4.435 700.918 4.605C701.088 4.765 701.383 4.845 701.803 4.845H702.808V6H701.578C700.818 6 700.248 5.825 699.868 5.475C699.488 5.125 699.298 4.55 699.298 3.75V-1.095H698.233V-2.22H699.298V-4.29H700.663V-2.22H702.808V-1.095H700.663ZM712.361 1.575C712.361 1.835 712.346 2.11 712.316 2.4H705.746C705.796 3.21 706.071 3.845 706.571 4.305C707.081 4.755 707.696 4.98 708.416 4.98C709.006 4.98 709.496 4.845 709.886 4.575C710.286 4.295 710.566 3.925 710.726 3.465H712.196C711.976 4.255 711.536 4.9 710.876 5.4C710.216 5.89 709.396 6.135 708.416 6.135C707.636 6.135 706.936 5.96 706.316 5.61C705.706 5.26 705.226 4.765 704.876 4.125C704.526 3.475 704.351 2.725 704.351 1.875C704.351 1.025 704.521 0.28 704.861 -0.36C705.201 -1 705.676 -1.49 706.286 -1.83C706.906 -2.18 707.616 -2.355 708.416 -2.355C709.196 -2.355 709.886 -2.185 710.486 -1.845C711.086 -1.505 711.546 -1.035 711.866 -0.435C712.196 0.155 712.361 0.825 712.361 1.575ZM710.951 1.29C710.951 0.77 710.836 0.325 710.606 -0.0450004C710.376 -0.425 710.061 -0.71 709.661 -0.9C709.271 -1.1 708.836 -1.2 708.356 -1.2C707.666 -1.2 707.076 -0.98 706.586 -0.54C706.106 -0.1 705.831 0.51 705.761 1.29H710.951ZM716.228 -1.095V3.75C716.228 4.15 716.313 4.435 716.483 4.605C716.653 4.765 716.948 4.845 717.368 4.845H718.373V6H717.143C716.383 6 715.813 5.825 715.433 5.475C715.053 5.125 714.863 4.55 714.863 3.75V-1.095H713.798V-2.22H714.863V-4.29H716.228V-2.22H718.373V-1.095H716.228ZM727.717 -2.22V6H726.352V4.785C726.092 5.205 725.727 5.535 725.257 5.775C724.797 6.005 724.287 6.12 723.727 6.12C723.087 6.12 722.512 5.99 722.002 5.73C721.492 5.46 721.087 5.06 720.787 4.53C720.497 4 720.352 3.355 720.352 2.595V-2.22H721.702V2.415C721.702 3.225 721.907 3.85 722.317 4.29C722.727 4.72 723.287 4.935 723.997 4.935C724.727 4.935 725.302 4.71 725.722 4.26C726.142 3.81 726.352 3.155 726.352 2.295V-2.22H727.717ZM731.787 -0.885C732.027 -1.355 732.367 -1.72 732.807 -1.98C733.257 -2.24 733.802 -2.37 734.442 -2.37V-0.96H734.082C732.552 -0.96 731.787 -0.13 731.787 1.53V6H730.422V-2.22H731.787V-0.885ZM736.853 6.09C736.593 6.09 736.373 6 736.193 5.82C736.013 5.64 735.923 5.42 735.923 5.16C735.923 4.9 736.013 4.68 736.193 4.5C736.373 4.32 736.593 4.23 736.853 4.23C737.103 4.23 737.313 4.32 737.483 4.5C737.663 4.68 737.753 4.9 737.753 5.16C737.753 5.42 737.663 5.64 737.483 5.82C737.313 6 737.103 6.09 736.853 6.09Z" fill="#6F6F6F"/>
<path d="M105.52 68.89H109.18V70H104.155V59.545H105.52V68.89ZM114.615 70.135C113.845 70.135 113.145 69.96 112.515 69.61C111.895 69.26 111.405 68.765 111.045 68.125C110.695 67.475 110.52 66.725 110.52 65.875C110.52 65.035 110.7 64.295 111.06 63.655C111.43 63.005 111.93 62.51 112.56 62.17C113.19 61.82 113.895 61.645 114.675 61.645C115.455 61.645 116.16 61.82 116.79 62.17C117.42 62.51 117.915 63 118.275 63.64C118.645 64.28 118.83 65.025 118.83 65.875C118.83 66.725 118.64 67.475 118.26 68.125C117.89 68.765 117.385 69.26 116.745 69.61C116.105 69.96 115.395 70.135 114.615 70.135ZM114.615 68.935C115.105 68.935 115.565 68.82 115.995 68.59C116.425 68.36 116.77 68.015 117.03 67.555C117.3 67.095 117.435 66.535 117.435 65.875C117.435 65.215 117.305 64.655 117.045 64.195C116.785 63.735 116.445 63.395 116.025 63.175C115.605 62.945 115.15 62.83 114.66 62.83C114.16 62.83 113.7 62.945 113.28 63.175C112.87 63.395 112.54 63.735 112.29 64.195C112.04 64.655 111.915 65.215 111.915 65.875C111.915 66.545 112.035 67.11 112.275 67.57C112.525 68.03 112.855 68.375 113.265 68.605C113.675 68.825 114.125 68.935 114.615 68.935ZM122.389 63.115C122.629 62.645 122.969 62.28 123.409 62.02C123.859 61.76 124.404 61.63 125.044 61.63V63.04H124.684C123.154 63.04 122.389 63.87 122.389 65.53V70H121.024V61.78H122.389V63.115ZM134.52 65.575C134.52 65.835 134.505 66.11 134.475 66.4H127.905C127.955 67.21 128.23 67.845 128.73 68.305C129.24 68.755 129.855 68.98 130.575 68.98C131.165 68.98 131.655 68.845 132.045 68.575C132.445 68.295 132.725 67.925 132.885 67.465H134.355C134.135 68.255 133.695 68.9 133.035 69.4C132.375 69.89 131.555 70.135 130.575 70.135C129.795 70.135 129.095 69.96 128.475 69.61C127.865 69.26 127.385 68.765 127.035 68.125C126.685 67.475 126.51 66.725 126.51 65.875C126.51 65.025 126.68 64.28 127.02 63.64C127.36 63 127.835 62.51 128.445 62.17C129.065 61.82 129.775 61.645 130.575 61.645C131.355 61.645 132.045 61.815 132.645 62.155C133.245 62.495 133.705 62.965 134.025 63.565C134.355 64.155 134.52 64.825 134.52 65.575ZM133.11 65.29C133.11 64.77 132.995 64.325 132.765 63.955C132.535 63.575 132.22 63.29 131.82 63.1C131.43 62.9 130.995 62.8 130.515 62.8C129.825 62.8 129.235 63.02 128.745 63.46C128.265 63.9 127.99 64.51 127.92 65.29H133.11ZM146.607 61.63C147.247 61.63 147.817 61.765 148.317 62.035C148.817 62.295 149.212 62.69 149.502 63.22C149.792 63.75 149.937 64.395 149.937 65.155V70H148.587V65.35C148.587 64.53 148.382 63.905 147.972 63.475C147.572 63.035 147.027 62.815 146.337 62.815C145.627 62.815 145.062 63.045 144.642 63.505C144.222 63.955 144.012 64.61 144.012 65.47V70H142.662V65.35C142.662 64.53 142.457 63.905 142.047 63.475C141.647 63.035 141.102 62.815 140.412 62.815C139.702 62.815 139.137 63.045 138.717 63.505C138.297 63.955 138.087 64.61 138.087 65.47V70H136.722V61.78H138.087V62.965C138.357 62.535 138.717 62.205 139.167 61.975C139.627 61.745 140.132 61.63 140.682 61.63C141.372 61.63 141.982 61.785 142.512 62.095C143.042 62.405 143.437 62.86 143.697 63.46C143.927 62.88 144.307 62.43 144.837 62.11C145.367 61.79 145.957 61.63 146.607 61.63ZM157.68 60.445C157.42 60.445 157.2 60.355 157.02 60.175C156.84 59.995 156.75 59.775 156.75 59.515C156.75 59.255 156.84 59.035 157.02 58.855C157.2 58.675 157.42 58.585 157.68 58.585C157.93 58.585 158.14 58.675 158.31 58.855C158.49 59.035 158.58 59.255 158.58 59.515C158.58 59.775 158.49 59.995 158.31 60.175C158.14 60.355 157.93 60.445 157.68 60.445ZM158.34 61.78V70H156.975V61.78H158.34ZM162.431 63.295C162.701 62.825 163.101 62.435 163.631 62.125C164.171 61.805 164.796 61.645 165.506 61.645C166.236 61.645 166.896 61.82 167.486 62.17C168.086 62.52 168.556 63.015 168.896 63.655C169.236 64.285 169.406 65.02 169.406 65.86C169.406 66.69 169.236 67.43 168.896 68.08C168.556 68.73 168.086 69.235 167.486 69.595C166.896 69.955 166.236 70.135 165.506 70.135C164.806 70.135 164.186 69.98 163.646 69.67C163.116 69.35 162.711 68.955 162.431 68.485V73.9H161.066V61.78H162.431V63.295ZM168.011 65.86C168.011 65.24 167.886 64.7 167.636 64.24C167.386 63.78 167.046 63.43 166.616 63.19C166.196 62.95 165.731 62.83 165.221 62.83C164.721 62.83 164.256 62.955 163.826 63.205C163.406 63.445 163.066 63.8 162.806 64.27C162.556 64.73 162.431 65.265 162.431 65.875C162.431 66.495 162.556 67.04 162.806 67.51C163.066 67.97 163.406 68.325 163.826 68.575C164.256 68.815 164.721 68.935 165.221 68.935C165.731 68.935 166.196 68.815 166.616 68.575C167.046 68.325 167.386 67.97 167.636 67.51C167.886 67.04 168.011 66.49 168.011 65.86ZM174.513 70.135C173.883 70.135 173.318 70.03 172.818 69.82C172.318 69.6 171.923 69.3 171.633 68.92C171.343 68.53 171.183 68.085 171.153 67.585H172.563C172.603 67.995 172.793 68.33 173.133 68.59C173.483 68.85 173.938 68.98 174.498 68.98C175.018 68.98 175.428 68.865 175.728 68.635C176.028 68.405 176.178 68.115 176.178 67.765C176.178 67.405 176.018 67.14 175.698 66.97C175.378 66.79 174.883 66.615 174.213 66.445C173.603 66.285 173.103 66.125 172.713 65.965C172.333 65.795 172.003 65.55 171.723 65.23C171.453 64.9 171.318 64.47 171.318 63.94C171.318 63.52 171.443 63.135 171.693 62.785C171.943 62.435 172.298 62.16 172.758 61.96C173.218 61.75 173.743 61.645 174.333 61.645C175.243 61.645 175.978 61.875 176.538 62.335C177.098 62.795 177.398 63.425 177.438 64.225H176.073C176.043 63.795 175.868 63.45 175.548 63.19C175.238 62.93 174.818 62.8 174.288 62.8C173.798 62.8 173.408 62.905 173.118 63.115C172.828 63.325 172.683 63.6 172.683 63.94C172.683 64.21 172.768 64.435 172.938 64.615C173.118 64.785 173.338 64.925 173.598 65.035C173.868 65.135 174.238 65.25 174.708 65.38C175.298 65.54 175.778 65.7 176.148 65.86C176.518 66.01 176.833 66.24 177.093 66.55C177.363 66.86 177.503 67.265 177.513 67.765C177.513 68.215 177.388 68.62 177.138 68.98C176.888 69.34 176.533 69.625 176.073 69.835C175.623 70.035 175.103 70.135 174.513 70.135ZM187.13 61.78V70H185.765V68.785C185.505 69.205 185.14 69.535 184.67 69.775C184.21 70.005 183.7 70.12 183.14 70.12C182.5 70.12 181.925 69.99 181.415 69.73C180.905 69.46 180.5 69.06 180.2 68.53C179.91 68 179.765 67.355 179.765 66.595V61.78H181.115V66.415C181.115 67.225 181.32 67.85 181.73 68.29C182.14 68.72 182.7 68.935 183.41 68.935C184.14 68.935 184.715 68.71 185.135 68.26C185.555 67.81 185.765 67.155 185.765 66.295V61.78H187.13ZM199.72 61.63C200.36 61.63 200.93 61.765 201.43 62.035C201.93 62.295 202.325 62.69 202.615 63.22C202.905 63.75 203.05 64.395 203.05 65.155V70H201.7V65.35C201.7 64.53 201.495 63.905 201.085 63.475C200.685 63.035 200.14 62.815 199.45 62.815C198.74 62.815 198.175 63.045 197.755 63.505C197.335 63.955 197.125 64.61 197.125 65.47V70H195.775V65.35C195.775 64.53 195.57 63.905 195.16 63.475C194.76 63.035 194.215 62.815 193.525 62.815C192.815 62.815 192.25 63.045 191.83 63.505C191.41 63.955 191.2 64.61 191.2 65.47V70H189.835V61.78H191.2V62.965C191.47 62.535 191.83 62.205 192.28 61.975C192.74 61.745 193.245 61.63 193.795 61.63C194.485 61.63 195.095 61.785 195.625 62.095C196.155 62.405 196.55 62.86 196.81 63.46C197.04 62.88 197.42 62.43 197.95 62.11C198.48 61.79 199.07 61.63 199.72 61.63ZM209.578 65.86C209.578 65.02 209.748 64.285 210.088 63.655C210.428 63.015 210.893 62.52 211.483 62.17C212.083 61.82 212.753 61.645 213.493 61.645C214.133 61.645 214.728 61.795 215.278 62.095C215.828 62.385 216.248 62.77 216.538 63.25V58.9H217.918V70H216.538V68.455C216.268 68.945 215.868 69.35 215.338 69.67C214.808 69.98 214.188 70.135 213.478 70.135C212.748 70.135 212.083 69.955 211.483 69.595C210.893 69.235 210.428 68.73 210.088 68.08C209.748 67.43 209.578 66.69 209.578 65.86ZM216.538 65.875C216.538 65.255 216.413 64.715 216.163 64.255C215.913 63.795 215.573 63.445 215.143 63.205C214.723 62.955 214.258 62.83 213.748 62.83C213.238 62.83 212.773 62.95 212.353 63.19C211.933 63.43 211.598 63.78 211.348 64.24C211.098 64.7 210.973 65.24 210.973 65.86C210.973 66.49 211.098 67.04 211.348 67.51C211.598 67.97 211.933 68.325 212.353 68.575C212.773 68.815 213.238 68.935 213.748 68.935C214.258 68.935 214.723 68.815 215.143 68.575C215.573 68.325 215.913 67.97 216.163 67.51C216.413 67.04 216.538 66.495 216.538 65.875ZM224.21 70.135C223.44 70.135 222.74 69.96 222.11 69.61C221.49 69.26 221 68.765 220.64 68.125C220.29 67.475 220.115 66.725 220.115 65.875C220.115 65.035 220.295 64.295 220.655 63.655C221.025 63.005 221.525 62.51 222.155 62.17C222.785 61.82 223.49 61.645 224.27 61.645C225.05 61.645 225.755 61.82 226.385 62.17C227.015 62.51 227.51 63 227.87 63.64C228.24 64.28 228.425 65.025 228.425 65.875C228.425 66.725 228.235 67.475 227.855 68.125C227.485 68.765 226.98 69.26 226.34 69.61C225.7 69.96 224.99 70.135 224.21 70.135ZM224.21 68.935C224.7 68.935 225.16 68.82 225.59 68.59C226.02 68.36 226.365 68.015 226.625 67.555C226.895 67.095 227.03 66.535 227.03 65.875C227.03 65.215 226.9 64.655 226.64 64.195C226.38 63.735 226.04 63.395 225.62 63.175C225.2 62.945 224.745 62.83 224.255 62.83C223.755 62.83 223.295 62.945 222.875 63.175C222.465 63.395 222.135 63.735 221.885 64.195C221.635 64.655 221.51 65.215 221.51 65.875C221.51 66.545 221.63 67.11 221.87 67.57C222.12 68.03 222.45 68.375 222.86 68.605C223.27 68.825 223.72 68.935 224.21 68.935ZM231.984 58.9V70H230.619V58.9H231.984ZM238.296 70.135C237.526 70.135 236.826 69.96 236.196 69.61C235.576 69.26 235.086 68.765 234.726 68.125C234.376 67.475 234.201 66.725 234.201 65.875C234.201 65.035 234.381 64.295 234.741 63.655C235.111 63.005 235.611 62.51 236.241 62.17C236.871 61.82 237.576 61.645 238.356 61.645C239.136 61.645 239.841 61.82 240.471 62.17C241.101 62.51 241.596 63 241.956 63.64C242.326 64.28 242.511 65.025 242.511 65.875C242.511 66.725 242.321 67.475 241.941 68.125C241.571 68.765 241.066 69.26 240.426 69.61C239.786 69.96 239.076 70.135 238.296 70.135ZM238.296 68.935C238.786 68.935 239.246 68.82 239.676 68.59C240.106 68.36 240.451 68.015 240.711 67.555C240.981 67.095 241.116 66.535 241.116 65.875C241.116 65.215 240.986 64.655 240.726 64.195C240.466 63.735 240.126 63.395 239.706 63.175C239.286 62.945 238.831 62.83 238.341 62.83C237.841 62.83 237.381 62.945 236.961 63.175C236.551 63.395 236.221 63.735 235.971 64.195C235.721 64.655 235.596 65.215 235.596 65.875C235.596 66.545 235.716 67.11 235.956 67.57C236.206 68.03 236.536 68.375 236.946 68.605C237.356 68.825 237.806 68.935 238.296 68.935ZM246.07 63.115C246.31 62.645 246.65 62.28 247.09 62.02C247.54 61.76 248.085 61.63 248.725 61.63V63.04H248.365C246.835 63.04 246.07 63.87 246.07 65.53V70H244.705V61.78H246.07V63.115ZM258.01 70.135C257.38 70.135 256.815 70.03 256.315 69.82C255.815 69.6 255.42 69.3 255.13 68.92C254.84 68.53 254.68 68.085 254.65 67.585H256.06C256.1 67.995 256.29 68.33 256.63 68.59C256.98 68.85 257.435 68.98 257.995 68.98C258.515 68.98 258.925 68.865 259.225 68.635C259.525 68.405 259.675 68.115 259.675 67.765C259.675 67.405 259.515 67.14 259.195 66.97C258.875 66.79 258.38 66.615 257.71 66.445C257.1 66.285 256.6 66.125 256.21 65.965C255.83 65.795 255.5 65.55 255.22 65.23C254.95 64.9 254.815 64.47 254.815 63.94C254.815 63.52 254.94 63.135 255.19 62.785C255.44 62.435 255.795 62.16 256.255 61.96C256.715 61.75 257.24 61.645 257.83 61.645C258.74 61.645 259.475 61.875 260.035 62.335C260.595 62.795 260.895 63.425 260.935 64.225H259.57C259.54 63.795 259.365 63.45 259.045 63.19C258.735 62.93 258.315 62.8 257.785 62.8C257.295 62.8 256.905 62.905 256.615 63.115C256.325 63.325 256.18 63.6 256.18 63.94C256.18 64.21 256.265 64.435 256.435 64.615C256.615 64.785 256.835 64.925 257.095 65.035C257.365 65.135 257.735 65.25 258.205 65.38C258.795 65.54 259.275 65.7 259.645 65.86C260.015 66.01 260.33 66.24 260.59 66.55C260.86 66.86 261 67.265 261.01 67.765C261.01 68.215 260.885 68.62 260.635 68.98C260.385 69.34 260.03 69.625 259.57 69.835C259.12 70.035 258.6 70.135 258.01 70.135ZM264.042 60.445C263.782 60.445 263.562 60.355 263.382 60.175C263.202 59.995 263.112 59.775 263.112 59.515C263.112 59.255 263.202 59.035 263.382 58.855C263.562 58.675 263.782 58.585 264.042 58.585C264.292 58.585 264.502 58.675 264.672 58.855C264.852 59.035 264.942 59.255 264.942 59.515C264.942 59.775 264.852 59.995 264.672 60.175C264.502 60.355 264.292 60.445 264.042 60.445ZM264.702 61.78V70H263.337V61.78H264.702ZM269.093 62.905V67.75C269.093 68.15 269.178 68.435 269.348 68.605C269.518 68.765 269.813 68.845 270.233 68.845H271.238V70H270.008C269.248 70 268.678 69.825 268.298 69.475C267.918 69.125 267.728 68.55 267.728 67.75V62.905H266.663V61.78H267.728V59.71H269.093V61.78H271.238V62.905H269.093ZM277.181 65.86C277.181 65.02 277.351 64.285 277.691 63.655C278.031 63.015 278.496 62.52 279.086 62.17C279.686 61.82 280.351 61.645 281.081 61.645C281.801 61.645 282.426 61.8 282.956 62.11C283.486 62.42 283.881 62.81 284.141 63.28V61.78H285.521V70H284.141V68.47C283.871 68.95 283.466 69.35 282.926 69.67C282.396 69.98 281.776 70.135 281.066 70.135C280.336 70.135 279.676 69.955 279.086 69.595C278.496 69.235 278.031 68.73 277.691 68.08C277.351 67.43 277.181 66.69 277.181 65.86ZM284.141 65.875C284.141 65.255 284.016 64.715 283.766 64.255C283.516 63.795 283.176 63.445 282.746 63.205C282.326 62.955 281.861 62.83 281.351 62.83C280.841 62.83 280.376 62.95 279.956 63.19C279.536 63.43 279.201 63.78 278.951 64.24C278.701 64.7 278.576 65.24 278.576 65.86C278.576 66.49 278.701 67.04 278.951 67.51C279.201 67.97 279.536 68.325 279.956 68.575C280.376 68.815 280.841 68.935 281.351 68.935C281.861 68.935 282.326 68.815 282.746 68.575C283.176 68.325 283.516 67.97 283.766 67.51C284.016 67.04 284.141 66.495 284.141 65.875ZM298.113 61.63C298.753 61.63 299.323 61.765 299.823 62.035C300.323 62.295 300.718 62.69 301.008 63.22C301.298 63.75 301.443 64.395 301.443 65.155V70H300.093V65.35C300.093 64.53 299.888 63.905 299.478 63.475C299.078 63.035 298.533 62.815 297.843 62.815C297.133 62.815 296.568 63.045 296.148 63.505C295.728 63.955 295.518 64.61 295.518 65.47V70H294.168V65.35C294.168 64.53 293.963 63.905 293.553 63.475C293.153 63.035 292.608 62.815 291.918 62.815C291.208 62.815 290.643 63.045 290.223 63.505C289.803 63.955 289.593 64.61 289.593 65.47V70H288.228V61.78H289.593V62.965C289.863 62.535 290.223 62.205 290.673 61.975C291.133 61.745 291.638 61.63 292.188 61.63C292.878 61.63 293.488 61.785 294.018 62.095C294.548 62.405 294.943 62.86 295.203 63.46C295.433 62.88 295.813 62.43 296.343 62.11C296.873 61.79 297.463 61.63 298.113 61.63ZM311.582 65.575C311.582 65.835 311.567 66.11 311.537 66.4H304.967C305.017 67.21 305.292 67.845 305.792 68.305C306.302 68.755 306.917 68.98 307.637 68.98C308.227 68.98 308.717 68.845 309.107 68.575C309.507 68.295 309.787 67.925 309.947 67.465H311.417C311.197 68.255 310.757 68.9 310.097 69.4C309.437 69.89 308.617 70.135 307.637 70.135C306.857 70.135 306.157 69.96 305.537 69.61C304.927 69.26 304.447 68.765 304.097 68.125C303.747 67.475 303.572 66.725 303.572 65.875C303.572 65.025 303.742 64.28 304.082 63.64C304.422 63 304.897 62.51 305.507 62.17C306.127 61.82 306.837 61.645 307.637 61.645C308.417 61.645 309.107 61.815 309.707 62.155C310.307 62.495 310.767 62.965 311.087 63.565C311.417 64.155 311.582 64.825 311.582 65.575ZM310.172 65.29C310.172 64.77 310.057 64.325 309.827 63.955C309.597 63.575 309.282 63.29 308.882 63.1C308.492 62.9 308.057 62.8 307.577 62.8C306.887 62.8 306.297 63.02 305.807 63.46C305.327 63.9 305.052 64.51 304.982 65.29H310.172ZM315.449 62.905V67.75C315.449 68.15 315.534 68.435 315.704 68.605C315.874 68.765 316.169 68.845 316.589 68.845H317.594V70H316.364C315.604 70 315.034 69.825 314.654 69.475C314.274 69.125 314.084 68.55 314.084 67.75V62.905H313.019V61.78H314.084V59.71H315.449V61.78H317.594V62.905H315.449ZM323.537 65.875C323.537 65.025 323.707 64.285 324.047 63.655C324.387 63.015 324.857 62.52 325.457 62.17C326.067 61.82 326.762 61.645 327.542 61.645C328.552 61.645 329.382 61.89 330.032 62.38C330.692 62.87 331.127 63.55 331.337 64.42H329.867C329.727 63.92 329.452 63.525 329.042 63.235C328.642 62.945 328.142 62.8 327.542 62.8C326.762 62.8 326.132 63.07 325.652 63.61C325.172 64.14 324.932 64.895 324.932 65.875C324.932 66.865 325.172 67.63 325.652 68.17C326.132 68.71 326.762 68.98 327.542 68.98C328.142 68.98 328.642 68.84 329.042 68.56C329.442 68.28 329.717 67.88 329.867 67.36H331.337C331.117 68.2 330.677 68.875 330.017 69.385C329.357 69.885 328.532 70.135 327.542 70.135C326.762 70.135 326.067 69.96 325.457 69.61C324.857 69.26 324.387 68.765 324.047 68.125C323.707 67.485 323.537 66.735 323.537 65.875ZM337.143 70.135C336.373 70.135 335.673 69.96 335.043 69.61C334.423 69.26 333.933 68.765 333.573 68.125C333.223 67.475 333.048 66.725 333.048 65.875C333.048 65.035 333.228 64.295 333.588 63.655C333.958 63.005 334.458 62.51 335.088 62.17C335.718 61.82 336.423 61.645 337.203 61.645C337.983 61.645 338.688 61.82 339.318 62.17C339.948 62.51 340.443 63 340.803 63.64C341.173 64.28 341.358 65.025 341.358 65.875C341.358 66.725 341.168 67.475 340.788 68.125C340.418 68.765 339.913 69.26 339.273 69.61C338.633 69.96 337.923 70.135 337.143 70.135ZM337.143 68.935C337.633 68.935 338.093 68.82 338.523 68.59C338.953 68.36 339.298 68.015 339.558 67.555C339.828 67.095 339.963 66.535 339.963 65.875C339.963 65.215 339.833 64.655 339.573 64.195C339.313 63.735 338.973 63.395 338.553 63.175C338.133 62.945 337.678 62.83 337.188 62.83C336.688 62.83 336.228 62.945 335.808 63.175C335.398 63.395 335.068 63.735 334.818 64.195C334.568 64.655 334.443 65.215 334.443 65.875C334.443 66.545 334.563 67.11 334.803 67.57C335.053 68.03 335.383 68.375 335.793 68.605C336.203 68.825 336.653 68.935 337.143 68.935ZM347.558 61.63C348.558 61.63 349.368 61.935 349.988 62.545C350.608 63.145 350.918 64.015 350.918 65.155V70H349.568V65.35C349.568 64.53 349.363 63.905 348.953 63.475C348.543 63.035 347.983 62.815 347.273 62.815C346.553 62.815 345.978 63.04 345.548 63.49C345.128 63.94 344.918 64.595 344.918 65.455V70H343.553V61.78H344.918V62.95C345.188 62.53 345.553 62.205 346.013 61.975C346.483 61.745 346.998 61.63 347.558 61.63ZM356.458 70.135C355.828 70.135 355.263 70.03 354.763 69.82C354.263 69.6 353.868 69.3 353.578 68.92C353.288 68.53 353.128 68.085 353.098 67.585H354.508C354.548 67.995 354.738 68.33 355.078 68.59C355.428 68.85 355.883 68.98 356.443 68.98C356.963 68.98 357.373 68.865 357.673 68.635C357.973 68.405 358.123 68.115 358.123 67.765C358.123 67.405 357.963 67.14 357.643 66.97C357.323 66.79 356.828 66.615 356.158 66.445C355.548 66.285 355.048 66.125 354.658 65.965C354.278 65.795 353.948 65.55 353.668 65.23C353.398 64.9 353.263 64.47 353.263 63.94C353.263 63.52 353.388 63.135 353.638 62.785C353.888 62.435 354.243 62.16 354.703 61.96C355.163 61.75 355.688 61.645 356.278 61.645C357.188 61.645 357.923 61.875 358.483 62.335C359.043 62.795 359.343 63.425 359.383 64.225H358.018C357.988 63.795 357.813 63.45 357.493 63.19C357.183 62.93 356.763 62.8 356.233 62.8C355.743 62.8 355.353 62.905 355.063 63.115C354.773 63.325 354.628 63.6 354.628 63.94C354.628 64.21 354.713 64.435 354.883 64.615C355.063 64.785 355.283 64.925 355.543 65.035C355.813 65.135 356.183 65.25 356.653 65.38C357.243 65.54 357.723 65.7 358.093 65.86C358.463 66.01 358.778 66.24 359.038 66.55C359.308 66.86 359.448 67.265 359.458 67.765C359.458 68.215 359.333 68.62 359.083 68.98C358.833 69.34 358.478 69.625 358.018 69.835C357.568 70.035 357.048 70.135 356.458 70.135ZM369.284 65.575C369.284 65.835 369.269 66.11 369.239 66.4H362.669C362.719 67.21 362.994 67.845 363.494 68.305C364.004 68.755 364.619 68.98 365.339 68.98C365.929 68.98 366.419 68.845 366.809 68.575C367.209 68.295 367.489 67.925 367.649 67.465H369.119C368.899 68.255 368.459 68.9 367.799 69.4C367.139 69.89 366.319 70.135 365.339 70.135C364.559 70.135 363.859 69.96 363.239 69.61C362.629 69.26 362.149 68.765 361.799 68.125C361.449 67.475 361.274 66.725 361.274 65.875C361.274 65.025 361.444 64.28 361.784 63.64C362.124 63 362.599 62.51 363.209 62.17C363.829 61.82 364.539 61.645 365.339 61.645C366.119 61.645 366.809 61.815 367.409 62.155C368.009 62.495 368.469 62.965 368.789 63.565C369.119 64.155 369.284 64.825 369.284 65.575ZM367.874 65.29C367.874 64.77 367.759 64.325 367.529 63.955C367.299 63.575 366.984 63.29 366.584 63.1C366.194 62.9 365.759 62.8 365.279 62.8C364.589 62.8 363.999 63.02 363.509 63.46C363.029 63.9 362.754 64.51 362.684 65.29H367.874ZM370.976 65.875C370.976 65.025 371.146 64.285 371.486 63.655C371.826 63.015 372.296 62.52 372.896 62.17C373.506 61.82 374.201 61.645 374.981 61.645C375.991 61.645 376.821 61.89 377.471 62.38C378.131 62.87 378.566 63.55 378.776 64.42H377.306C377.166 63.92 376.891 63.525 376.481 63.235C376.081 62.945 375.581 62.8 374.981 62.8C374.201 62.8 373.571 63.07 373.091 63.61C372.611 64.14 372.371 64.895 372.371 65.875C372.371 66.865 372.611 67.63 373.091 68.17C373.571 68.71 374.201 68.98 374.981 68.98C375.581 68.98 376.081 68.84 376.481 68.56C376.881 68.28 377.156 67.88 377.306 67.36H378.776C378.556 68.2 378.116 68.875 377.456 69.385C376.796 69.885 375.971 70.135 374.981 70.135C374.201 70.135 373.506 69.96 372.896 69.61C372.296 69.26 371.826 68.765 371.486 68.125C371.146 67.485 370.976 66.735 370.976 65.875ZM382.663 62.905V67.75C382.663 68.15 382.748 68.435 382.918 68.605C383.088 68.765 383.383 68.845 383.803 68.845H384.808V70H383.578C382.818 70 382.248 69.825 381.868 69.475C381.488 69.125 381.298 68.55 381.298 67.75V62.905H380.233V61.78H381.298V59.71H382.663V61.78H384.808V62.905H382.663ZM394.361 65.575C394.361 65.835 394.346 66.11 394.316 66.4H387.746C387.796 67.21 388.071 67.845 388.571 68.305C389.081 68.755 389.696 68.98 390.416 68.98C391.006 68.98 391.496 68.845 391.886 68.575C392.286 68.295 392.566 67.925 392.726 67.465H394.196C393.976 68.255 393.536 68.9 392.876 69.4C392.216 69.89 391.396 70.135 390.416 70.135C389.636 70.135 388.936 69.96 388.316 69.61C387.706 69.26 387.226 68.765 386.876 68.125C386.526 67.475 386.351 66.725 386.351 65.875C386.351 65.025 386.521 64.28 386.861 63.64C387.201 63 387.676 62.51 388.286 62.17C388.906 61.82 389.616 61.645 390.416 61.645C391.196 61.645 391.886 61.815 392.486 62.155C393.086 62.495 393.546 62.965 393.866 63.565C394.196 64.155 394.361 64.825 394.361 65.575ZM392.951 65.29C392.951 64.77 392.836 64.325 392.606 63.955C392.376 63.575 392.061 63.29 391.661 63.1C391.271 62.9 390.836 62.8 390.356 62.8C389.666 62.8 389.076 63.02 388.586 63.46C388.106 63.9 387.831 64.51 387.761 65.29H392.951ZM398.228 62.905V67.75C398.228 68.15 398.313 68.435 398.483 68.605C398.653 68.765 398.948 68.845 399.368 68.845H400.373V70H399.143C398.383 70 397.813 69.825 397.433 69.475C397.053 69.125 396.863 68.55 396.863 67.75V62.905H395.798V61.78H396.863V59.71H398.228V61.78H400.373V62.905H398.228ZM409.717 61.78V70H408.352V68.785C408.092 69.205 407.727 69.535 407.257 69.775C406.797 70.005 406.287 70.12 405.727 70.12C405.087 70.12 404.512 69.99 404.002 69.73C403.492 69.46 403.087 69.06 402.787 68.53C402.497 68 402.352 67.355 402.352 66.595V61.78H403.702V66.415C403.702 67.225 403.907 67.85 404.317 68.29C404.727 68.72 405.287 68.935 405.997 68.935C406.727 68.935 407.302 68.71 407.722 68.26C408.142 67.81 408.352 67.155 408.352 66.295V61.78H409.717ZM413.787 63.115C414.027 62.645 414.367 62.28 414.807 62.02C415.257 61.76 415.802 61.63 416.442 61.63V63.04H416.082C414.552 63.04 413.787 63.87 413.787 65.53V70H412.422V61.78H413.787V63.115ZM418.853 70.09C418.593 70.09 418.373 70 418.193 69.82C418.013 69.64 417.923 69.42 417.923 69.16C417.923 68.9 418.013 68.68 418.193 68.5C418.373 68.32 418.593 68.23 418.853 68.23C419.103 68.23 419.313 68.32 419.483 68.5C419.663 68.68 419.753 68.9 419.753 69.16C419.753 69.42 419.663 69.64 419.483 69.82C419.313 70 419.103 70.09 418.853 70.09Z" fill="#6F6F6F"/>
<path d="M423.52 69.89H427.18V71H422.155V60.545H423.52V69.89ZM432.615 71.135C431.845 71.135 431.145 70.96 430.515 70.61C429.895 70.26 429.405 69.765 429.045 69.125C428.695 68.475 428.52 67.725 428.52 66.875C428.52 66.035 428.7 65.295 429.06 64.655C429.43 64.005 429.93 63.51 430.56 63.17C431.19 62.82 431.895 62.645 432.675 62.645C433.455 62.645 434.16 62.82 434.79 63.17C435.42 63.51 435.915 64 436.275 64.64C436.645 65.28 436.83 66.025 436.83 66.875C436.83 67.725 436.64 68.475 436.26 69.125C435.89 69.765 435.385 70.26 434.745 70.61C434.105 70.96 433.395 71.135 432.615 71.135ZM432.615 69.935C433.105 69.935 433.565 69.82 433.995 69.59C434.425 69.36 434.77 69.015 435.03 68.555C435.3 68.095 435.435 67.535 435.435 66.875C435.435 66.215 435.305 65.655 435.045 65.195C434.785 64.735 434.445 64.395 434.025 64.175C433.605 63.945 433.15 63.83 432.66 63.83C432.16 63.83 431.7 63.945 431.28 64.175C430.87 64.395 430.54 64.735 430.29 65.195C430.04 65.655 429.915 66.215 429.915 66.875C429.915 67.545 430.035 68.11 430.275 68.57C430.525 69.03 430.855 69.375 431.265 69.605C431.675 69.825 432.125 69.935 432.615 69.935ZM440.389 64.115C440.629 63.645 440.969 63.28 441.409 63.02C441.859 62.76 442.404 62.63 443.044 62.63V64.04H442.684C441.154 64.04 440.389 64.87 440.389 66.53V71H439.024V62.78H440.389V64.115ZM452.52 66.575C452.52 66.835 452.505 67.11 452.475 67.4H445.905C445.955 68.21 446.23 68.845 446.73 69.305C447.24 69.755 447.855 69.98 448.575 69.98C449.165 69.98 449.655 69.845 450.045 69.575C450.445 69.295 450.725 68.925 450.885 68.465H452.355C452.135 69.255 451.695 69.9 451.035 70.4C450.375 70.89 449.555 71.135 448.575 71.135C447.795 71.135 447.095 70.96 446.475 70.61C445.865 70.26 445.385 69.765 445.035 69.125C444.685 68.475 444.51 67.725 444.51 66.875C444.51 66.025 444.68 65.28 445.02 64.64C445.36 64 445.835 63.51 446.445 63.17C447.065 62.82 447.775 62.645 448.575 62.645C449.355 62.645 450.045 62.815 450.645 63.155C451.245 63.495 451.705 63.965 452.025 64.565C452.355 65.155 452.52 65.825 452.52 66.575ZM451.11 66.29C451.11 65.77 450.995 65.325 450.765 64.955C450.535 64.575 450.22 64.29 449.82 64.1C449.43 63.9 448.995 63.8 448.515 63.8C447.825 63.8 447.235 64.02 446.745 64.46C446.265 64.9 445.99 65.51 445.92 66.29H451.11ZM464.607 62.63C465.247 62.63 465.817 62.765 466.317 63.035C466.817 63.295 467.212 63.69 467.502 64.22C467.792 64.75 467.937 65.395 467.937 66.155V71H466.587V66.35C466.587 65.53 466.382 64.905 465.972 64.475C465.572 64.035 465.027 63.815 464.337 63.815C463.627 63.815 463.062 64.045 462.642 64.505C462.222 64.955 462.012 65.61 462.012 66.47V71H460.662V66.35C460.662 65.53 460.457 64.905 460.047 64.475C459.647 64.035 459.102 63.815 458.412 63.815C457.702 63.815 457.137 64.045 456.717 64.505C456.297 64.955 456.087 65.61 456.087 66.47V71H454.722V62.78H456.087V63.965C456.357 63.535 456.717 63.205 457.167 62.975C457.627 62.745 458.132 62.63 458.682 62.63C459.372 62.63 459.982 62.785 460.512 63.095C461.042 63.405 461.437 63.86 461.697 64.46C461.927 63.88 462.307 63.43 462.837 63.11C463.367 62.79 463.957 62.63 464.607 62.63ZM475.68 61.445C475.42 61.445 475.2 61.355 475.02 61.175C474.84 60.995 474.75 60.775 474.75 60.515C474.75 60.255 474.84 60.035 475.02 59.855C475.2 59.675 475.42 59.585 475.68 59.585C475.93 59.585 476.14 59.675 476.31 59.855C476.49 60.035 476.58 60.255 476.58 60.515C476.58 60.775 476.49 60.995 476.31 61.175C476.14 61.355 475.93 61.445 475.68 61.445ZM476.34 62.78V71H474.975V62.78H476.34ZM480.431 64.295C480.701 63.825 481.101 63.435 481.631 63.125C482.171 62.805 482.796 62.645 483.506 62.645C484.236 62.645 484.896 62.82 485.486 63.17C486.086 63.52 486.556 64.015 486.896 64.655C487.236 65.285 487.406 66.02 487.406 66.86C487.406 67.69 487.236 68.43 486.896 69.08C486.556 69.73 486.086 70.235 485.486 70.595C484.896 70.955 484.236 71.135 483.506 71.135C482.806 71.135 482.186 70.98 481.646 70.67C481.116 70.35 480.711 69.955 480.431 69.485V74.9H479.066V62.78H480.431V64.295ZM486.011 66.86C486.011 66.24 485.886 65.7 485.636 65.24C485.386 64.78 485.046 64.43 484.616 64.19C484.196 63.95 483.731 63.83 483.221 63.83C482.721 63.83 482.256 63.955 481.826 64.205C481.406 64.445 481.066 64.8 480.806 65.27C480.556 65.73 480.431 66.265 480.431 66.875C480.431 67.495 480.556 68.04 480.806 68.51C481.066 68.97 481.406 69.325 481.826 69.575C482.256 69.815 482.721 69.935 483.221 69.935C483.731 69.935 484.196 69.815 484.616 69.575C485.046 69.325 485.386 68.97 485.636 68.51C485.886 68.04 486.011 67.49 486.011 66.86ZM492.513 71.135C491.883 71.135 491.318 71.03 490.818 70.82C490.318 70.6 489.923 70.3 489.633 69.92C489.343 69.53 489.183 69.085 489.153 68.585H490.563C490.603 68.995 490.793 69.33 491.133 69.59C491.483 69.85 491.938 69.98 492.498 69.98C493.018 69.98 493.428 69.865 493.728 69.635C494.028 69.405 494.178 69.115 494.178 68.765C494.178 68.405 494.018 68.14 493.698 67.97C493.378 67.79 492.883 67.615 492.213 67.445C491.603 67.285 491.103 67.125 490.713 66.965C490.333 66.795 490.003 66.55 489.723 66.23C489.453 65.9 489.318 65.47 489.318 64.94C489.318 64.52 489.443 64.135 489.693 63.785C489.943 63.435 490.298 63.16 490.758 62.96C491.218 62.75 491.743 62.645 492.333 62.645C493.243 62.645 493.978 62.875 494.538 63.335C495.098 63.795 495.398 64.425 495.438 65.225H494.073C494.043 64.795 493.868 64.45 493.548 64.19C493.238 63.93 492.818 63.8 492.288 63.8C491.798 63.8 491.408 63.905 491.118 64.115C490.828 64.325 490.683 64.6 490.683 64.94C490.683 65.21 490.768 65.435 490.938 65.615C491.118 65.785 491.338 65.925 491.598 66.035C491.868 66.135 492.238 66.25 492.708 66.38C493.298 66.54 493.778 66.7 494.148 66.86C494.518 67.01 494.833 67.24 495.093 67.55C495.363 67.86 495.503 68.265 495.513 68.765C495.513 69.215 495.388 69.62 495.138 69.98C494.888 70.34 494.533 70.625 494.073 70.835C493.623 71.035 493.103 71.135 492.513 71.135ZM505.13 62.78V71H503.765V69.785C503.505 70.205 503.14 70.535 502.67 70.775C502.21 71.005 501.7 71.12 501.14 71.12C500.5 71.12 499.925 70.99 499.415 70.73C498.905 70.46 498.5 70.06 498.2 69.53C497.91 69 497.765 68.355 497.765 67.595V62.78H499.115V67.415C499.115 68.225 499.32 68.85 499.73 69.29C500.14 69.72 500.7 69.935 501.41 69.935C502.14 69.935 502.715 69.71 503.135 69.26C503.555 68.81 503.765 68.155 503.765 67.295V62.78H505.13ZM517.72 62.63C518.36 62.63 518.93 62.765 519.43 63.035C519.93 63.295 520.325 63.69 520.615 64.22C520.905 64.75 521.05 65.395 521.05 66.155V71H519.7V66.35C519.7 65.53 519.495 64.905 519.085 64.475C518.685 64.035 518.14 63.815 517.45 63.815C516.74 63.815 516.175 64.045 515.755 64.505C515.335 64.955 515.125 65.61 515.125 66.47V71H513.775V66.35C513.775 65.53 513.57 64.905 513.16 64.475C512.76 64.035 512.215 63.815 511.525 63.815C510.815 63.815 510.25 64.045 509.83 64.505C509.41 64.955 509.2 65.61 509.2 66.47V71H507.835V62.78H509.2V63.965C509.47 63.535 509.83 63.205 510.28 62.975C510.74 62.745 511.245 62.63 511.795 62.63C512.485 62.63 513.095 62.785 513.625 63.095C514.155 63.405 514.55 63.86 514.81 64.46C515.04 63.88 515.42 63.43 515.95 63.11C516.48 62.79 517.07 62.63 517.72 62.63ZM527.578 66.86C527.578 66.02 527.748 65.285 528.088 64.655C528.428 64.015 528.893 63.52 529.483 63.17C530.083 62.82 530.753 62.645 531.493 62.645C532.133 62.645 532.728 62.795 533.278 63.095C533.828 63.385 534.248 63.77 534.538 64.25V59.9H535.918V71H534.538V69.455C534.268 69.945 533.868 70.35 533.338 70.67C532.808 70.98 532.188 71.135 531.478 71.135C530.748 71.135 530.083 70.955 529.483 70.595C528.893 70.235 528.428 69.73 528.088 69.08C527.748 68.43 527.578 67.69 527.578 66.86ZM534.538 66.875C534.538 66.255 534.413 65.715 534.163 65.255C533.913 64.795 533.573 64.445 533.143 64.205C532.723 63.955 532.258 63.83 531.748 63.83C531.238 63.83 530.773 63.95 530.353 64.19C529.933 64.43 529.598 64.78 529.348 65.24C529.098 65.7 528.973 66.24 528.973 66.86C528.973 67.49 529.098 68.04 529.348 68.51C529.598 68.97 529.933 69.325 530.353 69.575C530.773 69.815 531.238 69.935 531.748 69.935C532.258 69.935 532.723 69.815 533.143 69.575C533.573 69.325 533.913 68.97 534.163 68.51C534.413 68.04 534.538 67.495 534.538 66.875ZM542.21 71.135C541.44 71.135 540.74 70.96 540.11 70.61C539.49 70.26 539 69.765 538.64 69.125C538.29 68.475 538.115 67.725 538.115 66.875C538.115 66.035 538.295 65.295 538.655 64.655C539.025 64.005 539.525 63.51 540.155 63.17C540.785 62.82 541.49 62.645 542.27 62.645C543.05 62.645 543.755 62.82 544.385 63.17C545.015 63.51 545.51 64 545.87 64.64C546.24 65.28 546.425 66.025 546.425 66.875C546.425 67.725 546.235 68.475 545.855 69.125C545.485 69.765 544.98 70.26 544.34 70.61C543.7 70.96 542.99 71.135 542.21 71.135ZM542.21 69.935C542.7 69.935 543.16 69.82 543.59 69.59C544.02 69.36 544.365 69.015 544.625 68.555C544.895 68.095 545.03 67.535 545.03 66.875C545.03 66.215 544.9 65.655 544.64 65.195C544.38 64.735 544.04 64.395 543.62 64.175C543.2 63.945 542.745 63.83 542.255 63.83C541.755 63.83 541.295 63.945 540.875 64.175C540.465 64.395 540.135 64.735 539.885 65.195C539.635 65.655 539.51 66.215 539.51 66.875C539.51 67.545 539.63 68.11 539.87 68.57C540.12 69.03 540.45 69.375 540.86 69.605C541.27 69.825 541.72 69.935 542.21 69.935ZM549.984 59.9V71H548.619V59.9H549.984ZM556.296 71.135C555.526 71.135 554.826 70.96 554.196 70.61C553.576 70.26 553.086 69.765 552.726 69.125C552.376 68.475 552.201 67.725 552.201 66.875C552.201 66.035 552.381 65.295 552.741 64.655C553.111 64.005 553.611 63.51 554.241 63.17C554.871 62.82 555.576 62.645 556.356 62.645C557.136 62.645 557.841 62.82 558.471 63.17C559.101 63.51 559.596 64 559.956 64.64C560.326 65.28 560.511 66.025 560.511 66.875C560.511 67.725 560.321 68.475 559.941 69.125C559.571 69.765 559.066 70.26 558.426 70.61C557.786 70.96 557.076 71.135 556.296 71.135ZM556.296 69.935C556.786 69.935 557.246 69.82 557.676 69.59C558.106 69.36 558.451 69.015 558.711 68.555C558.981 68.095 559.116 67.535 559.116 66.875C559.116 66.215 558.986 65.655 558.726 65.195C558.466 64.735 558.126 64.395 557.706 64.175C557.286 63.945 556.831 63.83 556.341 63.83C555.841 63.83 555.381 63.945 554.961 64.175C554.551 64.395 554.221 64.735 553.971 65.195C553.721 65.655 553.596 66.215 553.596 66.875C553.596 67.545 553.716 68.11 553.956 68.57C554.206 69.03 554.536 69.375 554.946 69.605C555.356 69.825 555.806 69.935 556.296 69.935ZM564.07 64.115C564.31 63.645 564.65 63.28 565.09 63.02C565.54 62.76 566.085 62.63 566.725 62.63V64.04H566.365C564.835 64.04 564.07 64.87 564.07 66.53V71H562.705V62.78H564.07V64.115ZM576.01 71.135C575.38 71.135 574.815 71.03 574.315 70.82C573.815 70.6 573.42 70.3 573.13 69.92C572.84 69.53 572.68 69.085 572.65 68.585H574.06C574.1 68.995 574.29 69.33 574.63 69.59C574.98 69.85 575.435 69.98 575.995 69.98C576.515 69.98 576.925 69.865 577.225 69.635C577.525 69.405 577.675 69.115 577.675 68.765C577.675 68.405 577.515 68.14 577.195 67.97C576.875 67.79 576.38 67.615 575.71 67.445C575.1 67.285 574.6 67.125 574.21 66.965C573.83 66.795 573.5 66.55 573.22 66.23C572.95 65.9 572.815 65.47 572.815 64.94C572.815 64.52 572.94 64.135 573.19 63.785C573.44 63.435 573.795 63.16 574.255 62.96C574.715 62.75 575.24 62.645 575.83 62.645C576.74 62.645 577.475 62.875 578.035 63.335C578.595 63.795 578.895 64.425 578.935 65.225H577.57C577.54 64.795 577.365 64.45 577.045 64.19C576.735 63.93 576.315 63.8 575.785 63.8C575.295 63.8 574.905 63.905 574.615 64.115C574.325 64.325 574.18 64.6 574.18 64.94C574.18 65.21 574.265 65.435 574.435 65.615C574.615 65.785 574.835 65.925 575.095 66.035C575.365 66.135 575.735 66.25 576.205 66.38C576.795 66.54 577.275 66.7 577.645 66.86C578.015 67.01 578.33 67.24 578.59 67.55C578.86 67.86 579 68.265 579.01 68.765C579.01 69.215 578.885 69.62 578.635 69.98C578.385 70.34 578.03 70.625 577.57 70.835C577.12 71.035 576.6 71.135 576.01 71.135ZM582.042 61.445C581.782 61.445 581.562 61.355 581.382 61.175C581.202 60.995 581.112 60.775 581.112 60.515C581.112 60.255 581.202 60.035 581.382 59.855C581.562 59.675 581.782 59.585 582.042 59.585C582.292 59.585 582.502 59.675 582.672 59.855C582.852 60.035 582.942 60.255 582.942 60.515C582.942 60.775 582.852 60.995 582.672 61.175C582.502 61.355 582.292 61.445 582.042 61.445ZM582.702 62.78V71H581.337V62.78H582.702ZM587.093 63.905V68.75C587.093 69.15 587.178 69.435 587.348 69.605C587.518 69.765 587.813 69.845 588.233 69.845H589.238V71H588.008C587.248 71 586.678 70.825 586.298 70.475C585.918 70.125 585.728 69.55 585.728 68.75V63.905H584.663V62.78H585.728V60.71H587.093V62.78H589.238V63.905H587.093ZM595.181 66.86C595.181 66.02 595.351 65.285 595.691 64.655C596.031 64.015 596.496 63.52 597.086 63.17C597.686 62.82 598.351 62.645 599.081 62.645C599.801 62.645 600.426 62.8 600.956 63.11C601.486 63.42 601.881 63.81 602.141 64.28V62.78H603.521V71H602.141V69.47C601.871 69.95 601.466 70.35 600.926 70.67C600.396 70.98 599.776 71.135 599.066 71.135C598.336 71.135 597.676 70.955 597.086 70.595C596.496 70.235 596.031 69.73 595.691 69.08C595.351 68.43 595.181 67.69 595.181 66.86ZM602.141 66.875C602.141 66.255 602.016 65.715 601.766 65.255C601.516 64.795 601.176 64.445 600.746 64.205C600.326 63.955 599.861 63.83 599.351 63.83C598.841 63.83 598.376 63.95 597.956 64.19C597.536 64.43 597.201 64.78 596.951 65.24C596.701 65.7 596.576 66.24 596.576 66.86C596.576 67.49 596.701 68.04 596.951 68.51C597.201 68.97 597.536 69.325 597.956 69.575C598.376 69.815 598.841 69.935 599.351 69.935C599.861 69.935 600.326 69.815 600.746 69.575C601.176 69.325 601.516 68.97 601.766 68.51C602.016 68.04 602.141 67.495 602.141 66.875ZM616.113 62.63C616.753 62.63 617.323 62.765 617.823 63.035C618.323 63.295 618.718 63.69 619.008 64.22C619.298 64.75 619.443 65.395 619.443 66.155V71H618.093V66.35C618.093 65.53 617.888 64.905 617.478 64.475C617.078 64.035 616.533 63.815 615.843 63.815C615.133 63.815 614.568 64.045 614.148 64.505C613.728 64.955 613.518 65.61 613.518 66.47V71H612.168V66.35C612.168 65.53 611.963 64.905 611.553 64.475C611.153 64.035 610.608 63.815 609.918 63.815C609.208 63.815 608.643 64.045 608.223 64.505C607.803 64.955 607.593 65.61 607.593 66.47V71H606.228V62.78H607.593V63.965C607.863 63.535 608.223 63.205 608.673 62.975C609.133 62.745 609.638 62.63 610.188 62.63C610.878 62.63 611.488 62.785 612.018 63.095C612.548 63.405 612.943 63.86 613.203 64.46C613.433 63.88 613.813 63.43 614.343 63.11C614.873 62.79 615.463 62.63 616.113 62.63ZM629.582 66.575C629.582 66.835 629.567 67.11 629.537 67.4H622.967C623.017 68.21 623.292 68.845 623.792 69.305C624.302 69.755 624.917 69.98 625.637 69.98C626.227 69.98 626.717 69.845 627.107 69.575C627.507 69.295 627.787 68.925 627.947 68.465H629.417C629.197 69.255 628.757 69.9 628.097 70.4C627.437 70.89 626.617 71.135 625.637 71.135C624.857 71.135 624.157 70.96 623.537 70.61C622.927 70.26 622.447 69.765 622.097 69.125C621.747 68.475 621.572 67.725 621.572 66.875C621.572 66.025 621.742 65.28 622.082 64.64C622.422 64 622.897 63.51 623.507 63.17C624.127 62.82 624.837 62.645 625.637 62.645C626.417 62.645 627.107 62.815 627.707 63.155C628.307 63.495 628.767 63.965 629.087 64.565C629.417 65.155 629.582 65.825 629.582 66.575ZM628.172 66.29C628.172 65.77 628.057 65.325 627.827 64.955C627.597 64.575 627.282 64.29 626.882 64.1C626.492 63.9 626.057 63.8 625.577 63.8C624.887 63.8 624.297 64.02 623.807 64.46C623.327 64.9 623.052 65.51 622.982 66.29H628.172ZM633.449 63.905V68.75C633.449 69.15 633.534 69.435 633.704 69.605C633.874 69.765 634.169 69.845 634.589 69.845H635.594V71H634.364C633.604 71 633.034 70.825 632.654 70.475C632.274 70.125 632.084 69.55 632.084 68.75V63.905H631.019V62.78H632.084V60.71H633.449V62.78H635.594V63.905H633.449ZM641.537 66.875C641.537 66.025 641.707 65.285 642.047 64.655C642.387 64.015 642.857 63.52 643.457 63.17C644.067 62.82 644.762 62.645 645.542 62.645C646.552 62.645 647.382 62.89 648.032 63.38C648.692 63.87 649.127 64.55 649.337 65.42H647.867C647.727 64.92 647.452 64.525 647.042 64.235C646.642 63.945 646.142 63.8 645.542 63.8C644.762 63.8 644.132 64.07 643.652 64.61C643.172 65.14 642.932 65.895 642.932 66.875C642.932 67.865 643.172 68.63 643.652 69.17C644.132 69.71 644.762 69.98 645.542 69.98C646.142 69.98 646.642 69.84 647.042 69.56C647.442 69.28 647.717 68.88 647.867 68.36H649.337C649.117 69.2 648.677 69.875 648.017 70.385C647.357 70.885 646.532 71.135 645.542 71.135C644.762 71.135 644.067 70.96 643.457 70.61C642.857 70.26 642.387 69.765 642.047 69.125C641.707 68.485 641.537 67.735 641.537 66.875ZM655.143 71.135C654.373 71.135 653.673 70.96 653.043 70.61C652.423 70.26 651.933 69.765 651.573 69.125C651.223 68.475 651.048 67.725 651.048 66.875C651.048 66.035 651.228 65.295 651.588 64.655C651.958 64.005 652.458 63.51 653.088 63.17C653.718 62.82 654.423 62.645 655.203 62.645C655.983 62.645 656.688 62.82 657.318 63.17C657.948 63.51 658.443 64 658.803 64.64C659.173 65.28 659.358 66.025 659.358 66.875C659.358 67.725 659.168 68.475 658.788 69.125C658.418 69.765 657.913 70.26 657.273 70.61C656.633 70.96 655.923 71.135 655.143 71.135ZM655.143 69.935C655.633 69.935 656.093 69.82 656.523 69.59C656.953 69.36 657.298 69.015 657.558 68.555C657.828 68.095 657.963 67.535 657.963 66.875C657.963 66.215 657.833 65.655 657.573 65.195C657.313 64.735 656.973 64.395 656.553 64.175C656.133 63.945 655.678 63.83 655.188 63.83C654.688 63.83 654.228 63.945 653.808 64.175C653.398 64.395 653.068 64.735 652.818 65.195C652.568 65.655 652.443 66.215 652.443 66.875C652.443 67.545 652.563 68.11 652.803 68.57C653.053 69.03 653.383 69.375 653.793 69.605C654.203 69.825 654.653 69.935 655.143 69.935ZM665.558 62.63C666.558 62.63 667.368 62.935 667.988 63.545C668.608 64.145 668.918 65.015 668.918 66.155V71H667.568V66.35C667.568 65.53 667.363 64.905 666.953 64.475C666.543 64.035 665.983 63.815 665.273 63.815C664.553 63.815 663.978 64.04 663.548 64.49C663.128 64.94 662.918 65.595 662.918 66.455V71H661.553V62.78H662.918V63.95C663.188 63.53 663.553 63.205 664.013 62.975C664.483 62.745 664.998 62.63 665.558 62.63ZM674.458 71.135C673.828 71.135 673.263 71.03 672.763 70.82C672.263 70.6 671.868 70.3 671.578 69.92C671.288 69.53 671.128 69.085 671.098 68.585H672.508C672.548 68.995 672.738 69.33 673.078 69.59C673.428 69.85 673.883 69.98 674.443 69.98C674.963 69.98 675.373 69.865 675.673 69.635C675.973 69.405 676.123 69.115 676.123 68.765C676.123 68.405 675.963 68.14 675.643 67.97C675.323 67.79 674.828 67.615 674.158 67.445C673.548 67.285 673.048 67.125 672.658 66.965C672.278 66.795 671.948 66.55 671.668 66.23C671.398 65.9 671.263 65.47 671.263 64.94C671.263 64.52 671.388 64.135 671.638 63.785C671.888 63.435 672.243 63.16 672.703 62.96C673.163 62.75 673.688 62.645 674.278 62.645C675.188 62.645 675.923 62.875 676.483 63.335C677.043 63.795 677.343 64.425 677.383 65.225H676.018C675.988 64.795 675.813 64.45 675.493 64.19C675.183 63.93 674.763 63.8 674.233 63.8C673.743 63.8 673.353 63.905 673.063 64.115C672.773 64.325 672.628 64.6 672.628 64.94C672.628 65.21 672.713 65.435 672.883 65.615C673.063 65.785 673.283 65.925 673.543 66.035C673.813 66.135 674.183 66.25 674.653 66.38C675.243 66.54 675.723 66.7 676.093 66.86C676.463 67.01 676.778 67.24 677.038 67.55C677.308 67.86 677.448 68.265 677.458 68.765C677.458 69.215 677.333 69.62 677.083 69.98C676.833 70.34 676.478 70.625 676.018 70.835C675.568 71.035 675.048 71.135 674.458 71.135ZM687.284 66.575C687.284 66.835 687.269 67.11 687.239 67.4H680.669C680.719 68.21 680.994 68.845 681.494 69.305C682.004 69.755 682.619 69.98 683.339 69.98C683.929 69.98 684.419 69.845 684.809 69.575C685.209 69.295 685.489 68.925 685.649 68.465H687.119C686.899 69.255 686.459 69.9 685.799 70.4C685.139 70.89 684.319 71.135 683.339 71.135C682.559 71.135 681.859 70.96 681.239 70.61C680.629 70.26 680.149 69.765 679.799 69.125C679.449 68.475 679.274 67.725 679.274 66.875C679.274 66.025 679.444 65.28 679.784 64.64C680.124 64 680.599 63.51 681.209 63.17C681.829 62.82 682.539 62.645 683.339 62.645C684.119 62.645 684.809 62.815 685.409 63.155C686.009 63.495 686.469 63.965 686.789 64.565C687.119 65.155 687.284 65.825 687.284 66.575ZM685.874 66.29C685.874 65.77 685.759 65.325 685.529 64.955C685.299 64.575 684.984 64.29 684.584 64.1C684.194 63.9 683.759 63.8 683.279 63.8C682.589 63.8 681.999 64.02 681.509 64.46C681.029 64.9 680.754 65.51 680.684 66.29H685.874ZM688.976 66.875C688.976 66.025 689.146 65.285 689.486 64.655C689.826 64.015 690.296 63.52 690.896 63.17C691.506 62.82 692.201 62.645 692.981 62.645C693.991 62.645 694.821 62.89 695.471 63.38C696.131 63.87 696.566 64.55 696.776 65.42H695.306C695.166 64.92 694.891 64.525 694.481 64.235C694.081 63.945 693.581 63.8 692.981 63.8C692.201 63.8 691.571 64.07 691.091 64.61C690.611 65.14 690.371 65.895 690.371 66.875C690.371 67.865 690.611 68.63 691.091 69.17C691.571 69.71 692.201 69.98 692.981 69.98C693.581 69.98 694.081 69.84 694.481 69.56C694.881 69.28 695.156 68.88 695.306 68.36H696.776C696.556 69.2 696.116 69.875 695.456 70.385C694.796 70.885 693.971 71.135 692.981 71.135C692.201 71.135 691.506 70.96 690.896 70.61C690.296 70.26 689.826 69.765 689.486 69.125C689.146 68.485 688.976 67.735 688.976 66.875ZM700.663 63.905V68.75C700.663 69.15 700.748 69.435 700.918 69.605C701.088 69.765 701.383 69.845 701.803 69.845H702.808V71H701.578C700.818 71 700.248 70.825 699.868 70.475C699.488 70.125 699.298 69.55 699.298 68.75V63.905H698.233V62.78H699.298V60.71H700.663V62.78H702.808V63.905H700.663ZM712.361 66.575C712.361 66.835 712.346 67.11 712.316 67.4H705.746C705.796 68.21 706.071 68.845 706.571 69.305C707.081 69.755 707.696 69.98 708.416 69.98C709.006 69.98 709.496 69.845 709.886 69.575C710.286 69.295 710.566 68.925 710.726 68.465H712.196C711.976 69.255 711.536 69.9 710.876 70.4C710.216 70.89 709.396 71.135 708.416 71.135C707.636 71.135 706.936 70.96 706.316 70.61C705.706 70.26 705.226 69.765 704.876 69.125C704.526 68.475 704.351 67.725 704.351 66.875C704.351 66.025 704.521 65.28 704.861 64.64C705.201 64 705.676 63.51 706.286 63.17C706.906 62.82 707.616 62.645 708.416 62.645C709.196 62.645 709.886 62.815 710.486 63.155C711.086 63.495 711.546 63.965 711.866 64.565C712.196 65.155 712.361 65.825 712.361 66.575ZM710.951 66.29C710.951 65.77 710.836 65.325 710.606 64.955C710.376 64.575 710.061 64.29 709.661 64.1C709.271 63.9 708.836 63.8 708.356 63.8C707.666 63.8 707.076 64.02 706.586 64.46C706.106 64.9 705.831 65.51 705.761 66.29H710.951ZM716.228 63.905V68.75C716.228 69.15 716.313 69.435 716.483 69.605C716.653 69.765 716.948 69.845 717.368 69.845H718.373V71H717.143C716.383 71 715.813 70.825 715.433 70.475C715.053 70.125 714.863 69.55 714.863 68.75V63.905H713.798V62.78H714.863V60.71H716.228V62.78H718.373V63.905H716.228ZM727.717 62.78V71H726.352V69.785C726.092 70.205 725.727 70.535 725.257 70.775C724.797 71.005 724.287 71.12 723.727 71.12C723.087 71.12 722.512 70.99 722.002 70.73C721.492 70.46 721.087 70.06 720.787 69.53C720.497 69 720.352 68.355 720.352 67.595V62.78H721.702V67.415C721.702 68.225 721.907 68.85 722.317 69.29C722.727 69.72 723.287 69.935 723.997 69.935C724.727 69.935 725.302 69.71 725.722 69.26C726.142 68.81 726.352 68.155 726.352 67.295V62.78H727.717ZM731.787 64.115C732.027 63.645 732.367 63.28 732.807 63.02C733.257 62.76 733.802 62.63 734.442 62.63V64.04H734.082C732.552 64.04 731.787 64.87 731.787 66.53V71H730.422V62.78H731.787V64.115ZM736.853 71.09C736.593 71.09 736.373 71 736.193 70.82C736.013 70.64 735.923 70.42 735.923 70.16C735.923 69.9 736.013 69.68 736.193 69.5C736.373 69.32 736.593 69.23 736.853 69.23C737.103 69.23 737.313 69.32 737.483 69.5C737.663 69.68 737.753 69.9 737.753 70.16C737.753 70.42 737.663 70.64 737.483 70.82C737.313 71 737.103 71.09 736.853 71.09Z" fill="#6F6F6F"/>
<g filter="url(#filter0_b_271_7344)">
<path d="M631.175 31.1755L629.85 29.8255L635.65 24.0005L629.85 18.1755L631.175 16.8005L637.025 22.6255L642.825 16.8005L644.15 18.1755L638.375 24.0005L644.15 29.8255L642.825 31.1755L637.025 25.3505L631.175 31.1755Z" fill="white"/>
</g>
<g opacity="0.7" filter="url(#filter1_b_271_7344)">
<rect x="-389" y="-302" width="1440" height="1072" fill="black"/>
</g>
<g filter="url(#filter2_d_271_7344)">
<g filter="url(#filter3_d_271_7344)">
<rect width="661" height="468" fill="white"/>
</g>
<path opacity="0.8" d="M326.734 25.2085C197.482 25.9764 0 113.549 0 113.549V0.000213623H661V113.549C661 113.549 458.89 24.4233 326.734 25.2085Z" fill="url(#paint0_linear_271_7344)"/>
<path opacity="0.9" d="M661 9.15527e-05V31.6191C661 31.6191 454.379 13.006 321.842 13.3888C196.063 13.752 0 31.6191 0 31.6191V9.15527e-05H661Z" fill="url(#paint1_linear_271_7344)"/>
</g>
</g>
<defs>
<filter id="filter0_b_271_7344" x="576" y="-36.9995" width="122" height="122" filterUnits="userSpaceOnUse" color-interpolation-filters="sRGB">
<feFlood flood-opacity="0" result="BackgroundImageFix"/>
<feGaussianBlur in="BackgroundImageFix" stdDeviation="24.5"/>
<feComposite in2="SourceAlpha" operator="in" result="effect1_backgroundBlur_271_7344"/>
<feBlend mode="normal" in="SourceGraphic" in2="effect1_backgroundBlur_271_7344" result="shape"/>
</filter>
<filter id="filter1_b_271_7344" x="-889" y="-802" width="2440" height="2072" filterUnits="userSpaceOnUse" color-interpolation-filters="sRGB">
<feFlood flood-opacity="0" result="BackgroundImageFix"/>
<feGaussianBlur in="BackgroundImageFix" stdDeviation="250"/>
<feComposite in2="SourceAlpha" operator="in" result="effect1_backgroundBlur_271_7344"/>
<feBlend mode="normal" in="SourceGraphic" in2="effect1_backgroundBlur_271_7344" result="shape"/>
</filter>
<filter id="filter2_d_271_7344" x="-14" y="-12" width="701" height="508" filterUnits="userSpaceOnUse" color-interpolation-filters="sRGB">
<feFlood flood-opacity="0" result="BackgroundImageFix"/>
<feColorMatrix in="SourceAlpha" type="matrix" values="0 0 0 0 0 0 0 0 0 0 0 0 0 0 0 0 0 0 127 0" result="hardAlpha"/>
<feOffset dx="6" dy="8"/>
<feGaussianBlur stdDeviation="10"/>
<feComposite in2="hardAlpha" operator="out"/>
<feColorMatrix type="matrix" values="0 0 0 0 0 0 0 0 0 0 0 0 0 0 0 0 0 0 0.5 0"/>
<feBlend mode="normal" in2="BackgroundImageFix" result="effect1_dropShadow_271_7344"/>
<feBlend mode="normal" in="SourceGraphic" in2="effect1_dropShadow_271_7344" result="shape"/>
</filter>
<filter id="filter3_d_271_7344" x="-153" y="-152" width="973" height="780" filterUnits="userSpaceOnUse" color-interpolation-filters="sRGB">
<feFlood flood-opacity="0" result="BackgroundImageFix"/>
<feColorMatrix in="SourceAlpha" type="matrix" values="0 0 0 0 0 0 0 0 0 0 0 0 0 0 0 0 0 0 127 0" result="hardAlpha"/>
<feMorphology radius="6" operator="dilate" in="SourceAlpha" result="effect1_dropShadow_271_7344"/>
<feOffset dx="3" dy="4"/>
<feGaussianBlur stdDeviation="75"/>
<feComposite in2="hardAlpha" operator="out"/>
<feColorMatrix type="matrix" values="0 0 0 0 0 0 0 0 0 0 0 0 0 0 0 0 0 0 0.25 0"/>
<feBlend mode="normal" in2="BackgroundImageFix" result="effect1_dropShadow_271_7344"/>
<feBlend mode="normal" in="SourceGraphic" in2="effect1_dropShadow_271_7344" result="shape"/>
</filter>
<linearGradient id="paint0_linear_271_7344" x1="-125" y1="27.0002" x2="747.925" y2="41.4981" gradientUnits="userSpaceOnUse">
<stop stop-color="#40A5D7"/>
<stop offset="1" stop-color="#8648D0"/>
</linearGradient>
<linearGradient id="paint1_linear_271_7344" x1="670.226" y1="15.8095" x2="-27.4723" y2="18.0677" gradientUnits="userSpaceOnUse">
<stop stop-color="#685FCC"/>
<stop offset="1" stop-color="#A9608B"/>
</linearGradient>
<clipPath id="clip0_271_7344">
<rect width="1440" height="1070" fill="white" transform="translate(-390 -301)"/>
</clipPath>
</defs>
</svg>
