<svg width="170" height="197" viewBox="0 0 170 197" fill="none" xmlns="http://www.w3.org/2000/svg">
<g filter="url(#filter0_d_189_3086)">
<g clip-path="url(#clip0_189_3086)">
<path d="M113.829 150.694L115.273 178.423C115.273 178.423 54.1845 120.281 46.574 103.269C38.9635 86.257 53.2892 44.1753 53.2892 44.1753L85.0743 61.6347L113.829 150.694Z" fill="#9F616A"/>
<path d="M20.1613 32.5356L10.76 33.431C10.76 33.431 5.83556 44.1753 21.0566 45.0706L20.1613 32.5356Z" fill="#9F616A"/>
<path d="M20.1613 49.0999L10.76 49.9952C10.76 49.9952 5.83556 60.7395 21.0566 61.6348L20.1613 49.0999Z" fill="#9F616A"/>
<path d="M20.1613 67.0068L10.76 67.9022C10.76 67.9022 5.83556 78.6465 21.0566 79.5418L20.1613 67.0068Z" fill="#9F616A"/>
<path d="M22.8478 84.9141L13.4466 85.8094C13.4466 85.8094 8.52208 96.5537 23.7432 97.449L22.8478 84.9141Z" fill="#9F616A"/>
<path d="M15.584 36.852H16.2973V17.3103C16.2973 15.825 16.5899 14.3542 17.1583 12.982C17.7267 11.6098 18.5598 10.363 19.61 9.3127C20.6603 8.26245 21.9071 7.42934 23.2793 6.86095C24.6515 6.29255 26.1223 6 27.6076 6H69.0095C70.4948 6 71.9655 6.29254 73.3377 6.86093C74.71 7.42932 75.9568 8.26243 77.0071 9.31268C78.0573 10.3629 78.8904 11.6098 79.4588 12.982C80.0272 14.3542 80.3198 15.8249 80.3198 17.3102V124.518C80.3198 126.003 80.0272 127.474 79.4588 128.846C78.8904 130.218 78.0573 131.465 77.0071 132.516C75.9568 133.566 74.71 134.399 73.3378 134.967C71.9655 135.536 70.4948 135.828 69.0095 135.828H27.6076C24.608 135.828 21.7311 134.637 19.6101 132.516C17.489 130.395 16.2973 127.518 16.2973 124.518V50.7622H15.584V36.852Z" fill="#3F3D56"/>
<path d="M27.1515 8.94264H32.5558C32.3072 9.55195 32.2124 10.213 32.2795 10.8677C32.3467 11.5223 32.5738 12.1503 32.9408 12.6965C33.3079 13.2427 33.8036 13.6902 34.3844 13.9996C34.9651 14.3091 35.6131 14.471 36.2711 14.471H59.9897C60.6478 14.471 61.2957 14.3091 61.8765 13.9997C62.4573 13.6902 62.953 13.2427 63.3201 12.6965C63.6871 12.1503 63.9142 11.5223 63.9814 10.8677C64.0485 10.213 63.9536 9.55194 63.7051 8.94263H68.7528C70.9929 8.94262 73.1412 9.83251 74.7252 11.4165C76.3092 13.0005 77.1991 15.1489 77.1991 17.389V124.439C77.1991 125.549 76.9807 126.647 76.5562 127.672C76.1317 128.696 75.5096 129.628 74.7253 130.412C73.9409 131.196 73.0098 131.818 71.985 132.243C70.9603 132.667 69.8619 132.886 68.7528 132.886H27.1515C26.0423 132.886 24.9439 132.667 23.9192 132.243C22.8944 131.818 21.9633 131.196 21.179 130.412C20.3946 129.628 19.7725 128.697 19.348 127.672C18.9235 126.647 18.7051 125.549 18.7051 124.439V17.389C18.7051 16.2798 18.9235 15.1815 19.348 14.1567C19.7725 13.132 20.3946 12.2008 21.179 11.4165C21.9633 10.6322 22.8944 10.01 23.9192 9.58557C24.9439 9.1611 26.0423 8.94263 27.1515 8.94264Z" fill="white"/>
<path d="M56.8651 38.9329H39.0391V43.2344H56.8651V38.9329Z" fill="#6C63FF"/>
<path d="M57.7138 57.4165H38.1904V61.7181H57.7138V57.4165Z" fill="#E5E5E5"/>
<path d="M69.7392 66.6567H26.165V70.9583H69.7392V66.6567Z" fill="#E5E5E5"/>
<path d="M69.7392 75.897H26.165V80.1985H69.7392V75.897Z" fill="#E5E5E5"/>
<path d="M156 165.136L105.892 107.969L104.101 71.2598L85.2987 39.9223L79.9266 26.4919C79.9266 26.4919 67.3916 27.835 77.6882 53.3526L81.9411 67.0068C78.1074 75.264 76.1213 84.2582 76.1213 93.3619V124.65C76.1213 132.018 111.23 172.148 115.317 178.279L156 165.136Z" fill="#9F616A"/>
<path opacity="0.2" d="M81.4008 42.5778L85.1387 40.7407L85.0113 40.4814L81.5576 42.1789L76.344 28.51L76.0742 28.6131L81.4008 42.5778Z" fill="black"/>
<path opacity="0.2" d="M10.8098 33.2951L10.71 33.5662L16.2473 35.6059L16.3472 35.3349L10.8098 33.2951Z" fill="black"/>
<path opacity="0.2" d="M10.8098 50.048L10.71 50.3191L16.2473 52.3589L16.3472 52.0878L10.8098 50.048Z" fill="black"/>
<path opacity="0.2" d="M10.8098 67.9562L10.71 68.2273L16.2473 70.2671L16.3472 69.996L10.8098 67.9562Z" fill="black"/>
<path opacity="0.2" d="M13.7109 85.8698L13.5859 86.1301L16.2818 87.424L16.4068 87.1637L13.7109 85.8698Z" fill="black"/>
<path d="M47.974 117.321C54.8701 117.321 60.4606 111.731 60.4606 104.835C60.4606 97.9386 54.8701 92.3481 47.974 92.3481C41.0778 92.3481 35.4873 97.9386 35.4873 104.835C35.4873 111.731 41.0778 117.321 47.974 117.321Z" fill="#6C63FF"/>
<path d="M46.7839 110.106L43.0469 105.3L45.2201 103.61L46.9896 105.885L52.9677 99.5745L54.9668 101.468L46.7839 110.106Z" fill="white"/>
</g>
</g>
<defs>
<filter id="filter0_d_189_3086" x="0" y="0" width="170" height="196.423" filterUnits="userSpaceOnUse" color-interpolation-filters="sRGB">
<feFlood flood-opacity="0" result="BackgroundImageFix"/>
<feColorMatrix in="SourceAlpha" type="matrix" values="0 0 0 0 0 0 0 0 0 0 0 0 0 0 0 0 0 0 127 0" result="hardAlpha"/>
<feOffset dx="2" dy="6"/>
<feGaussianBlur stdDeviation="6"/>
<feColorMatrix type="matrix" values="0 0 0 0 0 0 0 0 0 0 0 0 0 0 0 0 0 0 0.25 0"/>
<feBlend mode="normal" in2="BackgroundImageFix" result="effect1_dropShadow_189_3086"/>
<feBlend mode="normal" in="SourceGraphic" in2="effect1_dropShadow_189_3086" result="shape"/>
</filter>
<clipPath id="clip0_189_3086">
<rect width="146" height="172.423" fill="white" transform="translate(10 6)"/>
</clipPath>
</defs>
</svg>
